G75*
%MOIN*%
%OFA0B0*%
%FSLAX25Y25*%
%IPPOS*%
%LPD*%
%AMOC8*
5,1,8,0,0,1.08239X$1,22.5*
%
%ADD10C,0.00000*%
%ADD11C,0.00100*%
D10*
X0004213Y0004606D02*
X0004213Y0106969D01*
X0287677Y0106969D01*
X0287677Y0004606D01*
X0004213Y0004606D01*
X0024705Y0026555D02*
X0024707Y0026646D01*
X0024713Y0026736D01*
X0024723Y0026827D01*
X0024737Y0026916D01*
X0024755Y0027005D01*
X0024776Y0027094D01*
X0024802Y0027181D01*
X0024831Y0027267D01*
X0024865Y0027351D01*
X0024901Y0027434D01*
X0024942Y0027516D01*
X0024986Y0027595D01*
X0025033Y0027673D01*
X0025084Y0027748D01*
X0025138Y0027821D01*
X0025195Y0027891D01*
X0025255Y0027959D01*
X0025318Y0028025D01*
X0025384Y0028087D01*
X0025453Y0028146D01*
X0025524Y0028203D01*
X0025598Y0028256D01*
X0025674Y0028306D01*
X0025752Y0028353D01*
X0025832Y0028396D01*
X0025913Y0028435D01*
X0025997Y0028471D01*
X0026082Y0028503D01*
X0026168Y0028532D01*
X0026255Y0028556D01*
X0026344Y0028577D01*
X0026433Y0028594D01*
X0026523Y0028607D01*
X0026613Y0028616D01*
X0026704Y0028621D01*
X0026795Y0028622D01*
X0026885Y0028619D01*
X0026976Y0028612D01*
X0027066Y0028601D01*
X0027156Y0028586D01*
X0027245Y0028567D01*
X0027333Y0028545D01*
X0027419Y0028518D01*
X0027505Y0028488D01*
X0027589Y0028454D01*
X0027672Y0028416D01*
X0027753Y0028375D01*
X0027832Y0028330D01*
X0027909Y0028281D01*
X0027983Y0028230D01*
X0028056Y0028175D01*
X0028126Y0028117D01*
X0028193Y0028056D01*
X0028257Y0027992D01*
X0028319Y0027926D01*
X0028378Y0027856D01*
X0028433Y0027785D01*
X0028486Y0027710D01*
X0028535Y0027634D01*
X0028581Y0027556D01*
X0028623Y0027475D01*
X0028662Y0027393D01*
X0028697Y0027309D01*
X0028728Y0027224D01*
X0028755Y0027137D01*
X0028779Y0027050D01*
X0028799Y0026961D01*
X0028815Y0026872D01*
X0028827Y0026782D01*
X0028835Y0026691D01*
X0028839Y0026600D01*
X0028839Y0026510D01*
X0028835Y0026419D01*
X0028827Y0026328D01*
X0028815Y0026238D01*
X0028799Y0026149D01*
X0028779Y0026060D01*
X0028755Y0025973D01*
X0028728Y0025886D01*
X0028697Y0025801D01*
X0028662Y0025717D01*
X0028623Y0025635D01*
X0028581Y0025554D01*
X0028535Y0025476D01*
X0028486Y0025400D01*
X0028433Y0025325D01*
X0028378Y0025254D01*
X0028319Y0025184D01*
X0028257Y0025118D01*
X0028193Y0025054D01*
X0028126Y0024993D01*
X0028056Y0024935D01*
X0027983Y0024880D01*
X0027909Y0024829D01*
X0027832Y0024780D01*
X0027753Y0024735D01*
X0027672Y0024694D01*
X0027589Y0024656D01*
X0027505Y0024622D01*
X0027419Y0024592D01*
X0027333Y0024565D01*
X0027245Y0024543D01*
X0027156Y0024524D01*
X0027066Y0024509D01*
X0026976Y0024498D01*
X0026885Y0024491D01*
X0026795Y0024488D01*
X0026704Y0024489D01*
X0026613Y0024494D01*
X0026523Y0024503D01*
X0026433Y0024516D01*
X0026344Y0024533D01*
X0026255Y0024554D01*
X0026168Y0024578D01*
X0026082Y0024607D01*
X0025997Y0024639D01*
X0025913Y0024675D01*
X0025832Y0024714D01*
X0025752Y0024757D01*
X0025674Y0024804D01*
X0025598Y0024854D01*
X0025524Y0024907D01*
X0025453Y0024964D01*
X0025384Y0025023D01*
X0025318Y0025085D01*
X0025255Y0025151D01*
X0025195Y0025219D01*
X0025138Y0025289D01*
X0025084Y0025362D01*
X0025033Y0025437D01*
X0024986Y0025515D01*
X0024942Y0025594D01*
X0024901Y0025676D01*
X0024865Y0025759D01*
X0024831Y0025843D01*
X0024802Y0025929D01*
X0024776Y0026016D01*
X0024755Y0026105D01*
X0024737Y0026194D01*
X0024723Y0026283D01*
X0024713Y0026374D01*
X0024707Y0026464D01*
X0024705Y0026555D01*
X0024705Y0045650D02*
X0024707Y0045741D01*
X0024713Y0045831D01*
X0024723Y0045922D01*
X0024737Y0046011D01*
X0024755Y0046100D01*
X0024776Y0046189D01*
X0024802Y0046276D01*
X0024831Y0046362D01*
X0024865Y0046446D01*
X0024901Y0046529D01*
X0024942Y0046611D01*
X0024986Y0046690D01*
X0025033Y0046768D01*
X0025084Y0046843D01*
X0025138Y0046916D01*
X0025195Y0046986D01*
X0025255Y0047054D01*
X0025318Y0047120D01*
X0025384Y0047182D01*
X0025453Y0047241D01*
X0025524Y0047298D01*
X0025598Y0047351D01*
X0025674Y0047401D01*
X0025752Y0047448D01*
X0025832Y0047491D01*
X0025913Y0047530D01*
X0025997Y0047566D01*
X0026082Y0047598D01*
X0026168Y0047627D01*
X0026255Y0047651D01*
X0026344Y0047672D01*
X0026433Y0047689D01*
X0026523Y0047702D01*
X0026613Y0047711D01*
X0026704Y0047716D01*
X0026795Y0047717D01*
X0026885Y0047714D01*
X0026976Y0047707D01*
X0027066Y0047696D01*
X0027156Y0047681D01*
X0027245Y0047662D01*
X0027333Y0047640D01*
X0027419Y0047613D01*
X0027505Y0047583D01*
X0027589Y0047549D01*
X0027672Y0047511D01*
X0027753Y0047470D01*
X0027832Y0047425D01*
X0027909Y0047376D01*
X0027983Y0047325D01*
X0028056Y0047270D01*
X0028126Y0047212D01*
X0028193Y0047151D01*
X0028257Y0047087D01*
X0028319Y0047021D01*
X0028378Y0046951D01*
X0028433Y0046880D01*
X0028486Y0046805D01*
X0028535Y0046729D01*
X0028581Y0046651D01*
X0028623Y0046570D01*
X0028662Y0046488D01*
X0028697Y0046404D01*
X0028728Y0046319D01*
X0028755Y0046232D01*
X0028779Y0046145D01*
X0028799Y0046056D01*
X0028815Y0045967D01*
X0028827Y0045877D01*
X0028835Y0045786D01*
X0028839Y0045695D01*
X0028839Y0045605D01*
X0028835Y0045514D01*
X0028827Y0045423D01*
X0028815Y0045333D01*
X0028799Y0045244D01*
X0028779Y0045155D01*
X0028755Y0045068D01*
X0028728Y0044981D01*
X0028697Y0044896D01*
X0028662Y0044812D01*
X0028623Y0044730D01*
X0028581Y0044649D01*
X0028535Y0044571D01*
X0028486Y0044495D01*
X0028433Y0044420D01*
X0028378Y0044349D01*
X0028319Y0044279D01*
X0028257Y0044213D01*
X0028193Y0044149D01*
X0028126Y0044088D01*
X0028056Y0044030D01*
X0027983Y0043975D01*
X0027909Y0043924D01*
X0027832Y0043875D01*
X0027753Y0043830D01*
X0027672Y0043789D01*
X0027589Y0043751D01*
X0027505Y0043717D01*
X0027419Y0043687D01*
X0027333Y0043660D01*
X0027245Y0043638D01*
X0027156Y0043619D01*
X0027066Y0043604D01*
X0026976Y0043593D01*
X0026885Y0043586D01*
X0026795Y0043583D01*
X0026704Y0043584D01*
X0026613Y0043589D01*
X0026523Y0043598D01*
X0026433Y0043611D01*
X0026344Y0043628D01*
X0026255Y0043649D01*
X0026168Y0043673D01*
X0026082Y0043702D01*
X0025997Y0043734D01*
X0025913Y0043770D01*
X0025832Y0043809D01*
X0025752Y0043852D01*
X0025674Y0043899D01*
X0025598Y0043949D01*
X0025524Y0044002D01*
X0025453Y0044059D01*
X0025384Y0044118D01*
X0025318Y0044180D01*
X0025255Y0044246D01*
X0025195Y0044314D01*
X0025138Y0044384D01*
X0025084Y0044457D01*
X0025033Y0044532D01*
X0024986Y0044610D01*
X0024942Y0044689D01*
X0024901Y0044771D01*
X0024865Y0044854D01*
X0024831Y0044938D01*
X0024802Y0045024D01*
X0024776Y0045111D01*
X0024755Y0045200D01*
X0024737Y0045289D01*
X0024723Y0045378D01*
X0024713Y0045469D01*
X0024707Y0045559D01*
X0024705Y0045650D01*
X0251654Y0036102D02*
X0251656Y0036203D01*
X0251662Y0036304D01*
X0251672Y0036405D01*
X0251686Y0036505D01*
X0251704Y0036604D01*
X0251726Y0036703D01*
X0251751Y0036801D01*
X0251781Y0036898D01*
X0251814Y0036993D01*
X0251851Y0037087D01*
X0251892Y0037180D01*
X0251936Y0037271D01*
X0251984Y0037360D01*
X0252036Y0037447D01*
X0252091Y0037532D01*
X0252149Y0037614D01*
X0252210Y0037695D01*
X0252275Y0037773D01*
X0252342Y0037848D01*
X0252412Y0037920D01*
X0252486Y0037990D01*
X0252562Y0038057D01*
X0252640Y0038121D01*
X0252721Y0038181D01*
X0252804Y0038238D01*
X0252890Y0038292D01*
X0252978Y0038343D01*
X0253067Y0038390D01*
X0253158Y0038434D01*
X0253251Y0038473D01*
X0253346Y0038510D01*
X0253441Y0038542D01*
X0253538Y0038571D01*
X0253637Y0038595D01*
X0253735Y0038616D01*
X0253835Y0038633D01*
X0253935Y0038646D01*
X0254036Y0038655D01*
X0254137Y0038660D01*
X0254238Y0038661D01*
X0254339Y0038658D01*
X0254440Y0038651D01*
X0254541Y0038640D01*
X0254641Y0038625D01*
X0254740Y0038606D01*
X0254839Y0038583D01*
X0254936Y0038557D01*
X0255033Y0038526D01*
X0255128Y0038492D01*
X0255221Y0038454D01*
X0255314Y0038412D01*
X0255404Y0038367D01*
X0255493Y0038318D01*
X0255579Y0038266D01*
X0255663Y0038210D01*
X0255746Y0038151D01*
X0255825Y0038089D01*
X0255903Y0038024D01*
X0255977Y0037956D01*
X0256049Y0037884D01*
X0256118Y0037811D01*
X0256184Y0037734D01*
X0256247Y0037655D01*
X0256307Y0037573D01*
X0256363Y0037489D01*
X0256416Y0037403D01*
X0256466Y0037315D01*
X0256512Y0037225D01*
X0256555Y0037134D01*
X0256594Y0037040D01*
X0256629Y0036945D01*
X0256660Y0036849D01*
X0256688Y0036752D01*
X0256712Y0036654D01*
X0256732Y0036555D01*
X0256748Y0036455D01*
X0256760Y0036354D01*
X0256768Y0036254D01*
X0256772Y0036153D01*
X0256772Y0036051D01*
X0256768Y0035950D01*
X0256760Y0035850D01*
X0256748Y0035749D01*
X0256732Y0035649D01*
X0256712Y0035550D01*
X0256688Y0035452D01*
X0256660Y0035355D01*
X0256629Y0035259D01*
X0256594Y0035164D01*
X0256555Y0035070D01*
X0256512Y0034979D01*
X0256466Y0034889D01*
X0256416Y0034801D01*
X0256363Y0034715D01*
X0256307Y0034631D01*
X0256247Y0034549D01*
X0256184Y0034470D01*
X0256118Y0034393D01*
X0256049Y0034320D01*
X0255977Y0034248D01*
X0255903Y0034180D01*
X0255825Y0034115D01*
X0255746Y0034053D01*
X0255663Y0033994D01*
X0255579Y0033938D01*
X0255492Y0033886D01*
X0255404Y0033837D01*
X0255314Y0033792D01*
X0255221Y0033750D01*
X0255128Y0033712D01*
X0255033Y0033678D01*
X0254936Y0033647D01*
X0254839Y0033621D01*
X0254740Y0033598D01*
X0254641Y0033579D01*
X0254541Y0033564D01*
X0254440Y0033553D01*
X0254339Y0033546D01*
X0254238Y0033543D01*
X0254137Y0033544D01*
X0254036Y0033549D01*
X0253935Y0033558D01*
X0253835Y0033571D01*
X0253735Y0033588D01*
X0253637Y0033609D01*
X0253538Y0033633D01*
X0253441Y0033662D01*
X0253346Y0033694D01*
X0253251Y0033731D01*
X0253158Y0033770D01*
X0253067Y0033814D01*
X0252978Y0033861D01*
X0252890Y0033912D01*
X0252804Y0033966D01*
X0252721Y0034023D01*
X0252640Y0034083D01*
X0252562Y0034147D01*
X0252486Y0034214D01*
X0252412Y0034284D01*
X0252342Y0034356D01*
X0252275Y0034431D01*
X0252210Y0034509D01*
X0252149Y0034590D01*
X0252091Y0034672D01*
X0252036Y0034757D01*
X0251984Y0034844D01*
X0251936Y0034933D01*
X0251892Y0035024D01*
X0251851Y0035117D01*
X0251814Y0035211D01*
X0251781Y0035306D01*
X0251751Y0035403D01*
X0251726Y0035501D01*
X0251704Y0035600D01*
X0251686Y0035699D01*
X0251672Y0035799D01*
X0251662Y0035900D01*
X0251656Y0036001D01*
X0251654Y0036102D01*
X0251654Y0065630D02*
X0251656Y0065731D01*
X0251662Y0065832D01*
X0251672Y0065933D01*
X0251686Y0066033D01*
X0251704Y0066132D01*
X0251726Y0066231D01*
X0251751Y0066329D01*
X0251781Y0066426D01*
X0251814Y0066521D01*
X0251851Y0066615D01*
X0251892Y0066708D01*
X0251936Y0066799D01*
X0251984Y0066888D01*
X0252036Y0066975D01*
X0252091Y0067060D01*
X0252149Y0067142D01*
X0252210Y0067223D01*
X0252275Y0067301D01*
X0252342Y0067376D01*
X0252412Y0067448D01*
X0252486Y0067518D01*
X0252562Y0067585D01*
X0252640Y0067649D01*
X0252721Y0067709D01*
X0252804Y0067766D01*
X0252890Y0067820D01*
X0252978Y0067871D01*
X0253067Y0067918D01*
X0253158Y0067962D01*
X0253251Y0068001D01*
X0253346Y0068038D01*
X0253441Y0068070D01*
X0253538Y0068099D01*
X0253637Y0068123D01*
X0253735Y0068144D01*
X0253835Y0068161D01*
X0253935Y0068174D01*
X0254036Y0068183D01*
X0254137Y0068188D01*
X0254238Y0068189D01*
X0254339Y0068186D01*
X0254440Y0068179D01*
X0254541Y0068168D01*
X0254641Y0068153D01*
X0254740Y0068134D01*
X0254839Y0068111D01*
X0254936Y0068085D01*
X0255033Y0068054D01*
X0255128Y0068020D01*
X0255221Y0067982D01*
X0255314Y0067940D01*
X0255404Y0067895D01*
X0255493Y0067846D01*
X0255579Y0067794D01*
X0255663Y0067738D01*
X0255746Y0067679D01*
X0255825Y0067617D01*
X0255903Y0067552D01*
X0255977Y0067484D01*
X0256049Y0067412D01*
X0256118Y0067339D01*
X0256184Y0067262D01*
X0256247Y0067183D01*
X0256307Y0067101D01*
X0256363Y0067017D01*
X0256416Y0066931D01*
X0256466Y0066843D01*
X0256512Y0066753D01*
X0256555Y0066662D01*
X0256594Y0066568D01*
X0256629Y0066473D01*
X0256660Y0066377D01*
X0256688Y0066280D01*
X0256712Y0066182D01*
X0256732Y0066083D01*
X0256748Y0065983D01*
X0256760Y0065882D01*
X0256768Y0065782D01*
X0256772Y0065681D01*
X0256772Y0065579D01*
X0256768Y0065478D01*
X0256760Y0065378D01*
X0256748Y0065277D01*
X0256732Y0065177D01*
X0256712Y0065078D01*
X0256688Y0064980D01*
X0256660Y0064883D01*
X0256629Y0064787D01*
X0256594Y0064692D01*
X0256555Y0064598D01*
X0256512Y0064507D01*
X0256466Y0064417D01*
X0256416Y0064329D01*
X0256363Y0064243D01*
X0256307Y0064159D01*
X0256247Y0064077D01*
X0256184Y0063998D01*
X0256118Y0063921D01*
X0256049Y0063848D01*
X0255977Y0063776D01*
X0255903Y0063708D01*
X0255825Y0063643D01*
X0255746Y0063581D01*
X0255663Y0063522D01*
X0255579Y0063466D01*
X0255492Y0063414D01*
X0255404Y0063365D01*
X0255314Y0063320D01*
X0255221Y0063278D01*
X0255128Y0063240D01*
X0255033Y0063206D01*
X0254936Y0063175D01*
X0254839Y0063149D01*
X0254740Y0063126D01*
X0254641Y0063107D01*
X0254541Y0063092D01*
X0254440Y0063081D01*
X0254339Y0063074D01*
X0254238Y0063071D01*
X0254137Y0063072D01*
X0254036Y0063077D01*
X0253935Y0063086D01*
X0253835Y0063099D01*
X0253735Y0063116D01*
X0253637Y0063137D01*
X0253538Y0063161D01*
X0253441Y0063190D01*
X0253346Y0063222D01*
X0253251Y0063259D01*
X0253158Y0063298D01*
X0253067Y0063342D01*
X0252978Y0063389D01*
X0252890Y0063440D01*
X0252804Y0063494D01*
X0252721Y0063551D01*
X0252640Y0063611D01*
X0252562Y0063675D01*
X0252486Y0063742D01*
X0252412Y0063812D01*
X0252342Y0063884D01*
X0252275Y0063959D01*
X0252210Y0064037D01*
X0252149Y0064118D01*
X0252091Y0064200D01*
X0252036Y0064285D01*
X0251984Y0064372D01*
X0251936Y0064461D01*
X0251892Y0064552D01*
X0251851Y0064645D01*
X0251814Y0064739D01*
X0251781Y0064834D01*
X0251751Y0064931D01*
X0251726Y0065029D01*
X0251704Y0065128D01*
X0251686Y0065227D01*
X0251672Y0065327D01*
X0251662Y0065428D01*
X0251656Y0065529D01*
X0251654Y0065630D01*
D11*
X0250213Y0061630D02*
X0258213Y0069630D01*
X0258213Y0061630D02*
X0250213Y0069630D01*
X0254213Y0069630D02*
X0254213Y0061630D01*
X0258213Y0040102D02*
X0250213Y0032102D01*
X0258213Y0032102D02*
X0250213Y0040102D01*
X0254213Y0040102D02*
X0254213Y0032102D01*
X0022872Y0026555D02*
X0022874Y0026679D01*
X0022880Y0026804D01*
X0022890Y0026928D01*
X0022904Y0027051D01*
X0022921Y0027174D01*
X0022943Y0027297D01*
X0022969Y0027419D01*
X0022998Y0027539D01*
X0023032Y0027659D01*
X0023069Y0027778D01*
X0023110Y0027895D01*
X0023154Y0028011D01*
X0023202Y0028126D01*
X0023254Y0028239D01*
X0023310Y0028350D01*
X0023369Y0028460D01*
X0023431Y0028567D01*
X0023497Y0028673D01*
X0023566Y0028776D01*
X0023639Y0028877D01*
X0023715Y0028976D01*
X0023793Y0029072D01*
X0023875Y0029166D01*
X0023960Y0029257D01*
X0024047Y0029346D01*
X0024138Y0029431D01*
X0024231Y0029514D01*
X0024327Y0029593D01*
X0024425Y0029669D01*
X0024525Y0029743D01*
X0024628Y0029813D01*
X0024733Y0029879D01*
X0024840Y0029943D01*
X0024949Y0030003D01*
X0025060Y0030059D01*
X0025172Y0030112D01*
X0025287Y0030161D01*
X0025402Y0030207D01*
X0025520Y0030248D01*
X0025638Y0030287D01*
X0025758Y0030321D01*
X0025878Y0030351D01*
X0026000Y0030378D01*
X0026122Y0030400D01*
X0026245Y0030419D01*
X0026368Y0030434D01*
X0026492Y0030445D01*
X0026617Y0030452D01*
X0026741Y0030455D01*
X0026865Y0030454D01*
X0026990Y0030449D01*
X0027114Y0030440D01*
X0027237Y0030427D01*
X0027361Y0030410D01*
X0027483Y0030390D01*
X0027605Y0030365D01*
X0027726Y0030336D01*
X0027846Y0030304D01*
X0027965Y0030268D01*
X0028083Y0030228D01*
X0028200Y0030184D01*
X0028315Y0030137D01*
X0028428Y0030086D01*
X0028540Y0030031D01*
X0028650Y0029973D01*
X0028758Y0029912D01*
X0028864Y0029847D01*
X0028968Y0029778D01*
X0029069Y0029707D01*
X0029169Y0029632D01*
X0029266Y0029554D01*
X0029360Y0029473D01*
X0029452Y0029389D01*
X0029541Y0029302D01*
X0029627Y0029212D01*
X0029710Y0029120D01*
X0029790Y0029025D01*
X0029868Y0028927D01*
X0029942Y0028827D01*
X0030013Y0028725D01*
X0030080Y0028621D01*
X0030144Y0028514D01*
X0030205Y0028405D01*
X0030262Y0028295D01*
X0030316Y0028183D01*
X0030366Y0028069D01*
X0030413Y0027954D01*
X0030455Y0027837D01*
X0030494Y0027719D01*
X0030530Y0027599D01*
X0030561Y0027479D01*
X0030588Y0027358D01*
X0030612Y0027236D01*
X0030632Y0027113D01*
X0030648Y0026989D01*
X0030660Y0026866D01*
X0030668Y0026742D01*
X0030672Y0026617D01*
X0030672Y0026493D01*
X0030668Y0026368D01*
X0030660Y0026244D01*
X0030648Y0026121D01*
X0030632Y0025997D01*
X0030612Y0025874D01*
X0030588Y0025752D01*
X0030561Y0025631D01*
X0030530Y0025511D01*
X0030494Y0025391D01*
X0030455Y0025273D01*
X0030413Y0025156D01*
X0030366Y0025041D01*
X0030316Y0024927D01*
X0030262Y0024815D01*
X0030205Y0024705D01*
X0030144Y0024596D01*
X0030080Y0024489D01*
X0030013Y0024385D01*
X0029942Y0024283D01*
X0029868Y0024183D01*
X0029790Y0024085D01*
X0029710Y0023990D01*
X0029627Y0023898D01*
X0029541Y0023808D01*
X0029452Y0023721D01*
X0029360Y0023637D01*
X0029266Y0023556D01*
X0029169Y0023478D01*
X0029069Y0023403D01*
X0028968Y0023332D01*
X0028864Y0023263D01*
X0028758Y0023198D01*
X0028650Y0023137D01*
X0028540Y0023079D01*
X0028428Y0023024D01*
X0028315Y0022973D01*
X0028200Y0022926D01*
X0028083Y0022882D01*
X0027965Y0022842D01*
X0027846Y0022806D01*
X0027726Y0022774D01*
X0027605Y0022745D01*
X0027483Y0022720D01*
X0027361Y0022700D01*
X0027237Y0022683D01*
X0027114Y0022670D01*
X0026990Y0022661D01*
X0026865Y0022656D01*
X0026741Y0022655D01*
X0026617Y0022658D01*
X0026492Y0022665D01*
X0026368Y0022676D01*
X0026245Y0022691D01*
X0026122Y0022710D01*
X0026000Y0022732D01*
X0025878Y0022759D01*
X0025758Y0022789D01*
X0025638Y0022823D01*
X0025520Y0022862D01*
X0025402Y0022903D01*
X0025287Y0022949D01*
X0025172Y0022998D01*
X0025060Y0023051D01*
X0024949Y0023107D01*
X0024840Y0023167D01*
X0024733Y0023231D01*
X0024628Y0023297D01*
X0024525Y0023367D01*
X0024425Y0023441D01*
X0024327Y0023517D01*
X0024231Y0023596D01*
X0024138Y0023679D01*
X0024047Y0023764D01*
X0023960Y0023853D01*
X0023875Y0023944D01*
X0023793Y0024038D01*
X0023715Y0024134D01*
X0023639Y0024233D01*
X0023566Y0024334D01*
X0023497Y0024437D01*
X0023431Y0024543D01*
X0023369Y0024650D01*
X0023310Y0024760D01*
X0023254Y0024871D01*
X0023202Y0024984D01*
X0023154Y0025099D01*
X0023110Y0025215D01*
X0023069Y0025332D01*
X0023032Y0025451D01*
X0022998Y0025571D01*
X0022969Y0025691D01*
X0022943Y0025813D01*
X0022921Y0025936D01*
X0022904Y0026059D01*
X0022890Y0026182D01*
X0022880Y0026306D01*
X0022874Y0026431D01*
X0022872Y0026555D01*
X0022772Y0022555D02*
X0030772Y0030555D01*
X0022872Y0045650D02*
X0022874Y0045774D01*
X0022880Y0045899D01*
X0022890Y0046023D01*
X0022904Y0046146D01*
X0022921Y0046269D01*
X0022943Y0046392D01*
X0022969Y0046514D01*
X0022998Y0046634D01*
X0023032Y0046754D01*
X0023069Y0046873D01*
X0023110Y0046990D01*
X0023154Y0047106D01*
X0023202Y0047221D01*
X0023254Y0047334D01*
X0023310Y0047445D01*
X0023369Y0047555D01*
X0023431Y0047662D01*
X0023497Y0047768D01*
X0023566Y0047871D01*
X0023639Y0047972D01*
X0023715Y0048071D01*
X0023793Y0048167D01*
X0023875Y0048261D01*
X0023960Y0048352D01*
X0024047Y0048441D01*
X0024138Y0048526D01*
X0024231Y0048609D01*
X0024327Y0048688D01*
X0024425Y0048764D01*
X0024525Y0048838D01*
X0024628Y0048908D01*
X0024733Y0048974D01*
X0024840Y0049038D01*
X0024949Y0049098D01*
X0025060Y0049154D01*
X0025172Y0049207D01*
X0025287Y0049256D01*
X0025402Y0049302D01*
X0025520Y0049343D01*
X0025638Y0049382D01*
X0025758Y0049416D01*
X0025878Y0049446D01*
X0026000Y0049473D01*
X0026122Y0049495D01*
X0026245Y0049514D01*
X0026368Y0049529D01*
X0026492Y0049540D01*
X0026617Y0049547D01*
X0026741Y0049550D01*
X0026865Y0049549D01*
X0026990Y0049544D01*
X0027114Y0049535D01*
X0027237Y0049522D01*
X0027361Y0049505D01*
X0027483Y0049485D01*
X0027605Y0049460D01*
X0027726Y0049431D01*
X0027846Y0049399D01*
X0027965Y0049363D01*
X0028083Y0049323D01*
X0028200Y0049279D01*
X0028315Y0049232D01*
X0028428Y0049181D01*
X0028540Y0049126D01*
X0028650Y0049068D01*
X0028758Y0049007D01*
X0028864Y0048942D01*
X0028968Y0048873D01*
X0029069Y0048802D01*
X0029169Y0048727D01*
X0029266Y0048649D01*
X0029360Y0048568D01*
X0029452Y0048484D01*
X0029541Y0048397D01*
X0029627Y0048307D01*
X0029710Y0048215D01*
X0029790Y0048120D01*
X0029868Y0048022D01*
X0029942Y0047922D01*
X0030013Y0047820D01*
X0030080Y0047716D01*
X0030144Y0047609D01*
X0030205Y0047500D01*
X0030262Y0047390D01*
X0030316Y0047278D01*
X0030366Y0047164D01*
X0030413Y0047049D01*
X0030455Y0046932D01*
X0030494Y0046814D01*
X0030530Y0046694D01*
X0030561Y0046574D01*
X0030588Y0046453D01*
X0030612Y0046331D01*
X0030632Y0046208D01*
X0030648Y0046084D01*
X0030660Y0045961D01*
X0030668Y0045837D01*
X0030672Y0045712D01*
X0030672Y0045588D01*
X0030668Y0045463D01*
X0030660Y0045339D01*
X0030648Y0045216D01*
X0030632Y0045092D01*
X0030612Y0044969D01*
X0030588Y0044847D01*
X0030561Y0044726D01*
X0030530Y0044606D01*
X0030494Y0044486D01*
X0030455Y0044368D01*
X0030413Y0044251D01*
X0030366Y0044136D01*
X0030316Y0044022D01*
X0030262Y0043910D01*
X0030205Y0043800D01*
X0030144Y0043691D01*
X0030080Y0043584D01*
X0030013Y0043480D01*
X0029942Y0043378D01*
X0029868Y0043278D01*
X0029790Y0043180D01*
X0029710Y0043085D01*
X0029627Y0042993D01*
X0029541Y0042903D01*
X0029452Y0042816D01*
X0029360Y0042732D01*
X0029266Y0042651D01*
X0029169Y0042573D01*
X0029069Y0042498D01*
X0028968Y0042427D01*
X0028864Y0042358D01*
X0028758Y0042293D01*
X0028650Y0042232D01*
X0028540Y0042174D01*
X0028428Y0042119D01*
X0028315Y0042068D01*
X0028200Y0042021D01*
X0028083Y0041977D01*
X0027965Y0041937D01*
X0027846Y0041901D01*
X0027726Y0041869D01*
X0027605Y0041840D01*
X0027483Y0041815D01*
X0027361Y0041795D01*
X0027237Y0041778D01*
X0027114Y0041765D01*
X0026990Y0041756D01*
X0026865Y0041751D01*
X0026741Y0041750D01*
X0026617Y0041753D01*
X0026492Y0041760D01*
X0026368Y0041771D01*
X0026245Y0041786D01*
X0026122Y0041805D01*
X0026000Y0041827D01*
X0025878Y0041854D01*
X0025758Y0041884D01*
X0025638Y0041918D01*
X0025520Y0041957D01*
X0025402Y0041998D01*
X0025287Y0042044D01*
X0025172Y0042093D01*
X0025060Y0042146D01*
X0024949Y0042202D01*
X0024840Y0042262D01*
X0024733Y0042326D01*
X0024628Y0042392D01*
X0024525Y0042462D01*
X0024425Y0042536D01*
X0024327Y0042612D01*
X0024231Y0042691D01*
X0024138Y0042774D01*
X0024047Y0042859D01*
X0023960Y0042948D01*
X0023875Y0043039D01*
X0023793Y0043133D01*
X0023715Y0043229D01*
X0023639Y0043328D01*
X0023566Y0043429D01*
X0023497Y0043532D01*
X0023431Y0043638D01*
X0023369Y0043745D01*
X0023310Y0043855D01*
X0023254Y0043966D01*
X0023202Y0044079D01*
X0023154Y0044194D01*
X0023110Y0044310D01*
X0023069Y0044427D01*
X0023032Y0044546D01*
X0022998Y0044666D01*
X0022969Y0044786D01*
X0022943Y0044908D01*
X0022921Y0045031D01*
X0022904Y0045154D01*
X0022890Y0045277D01*
X0022880Y0045401D01*
X0022874Y0045526D01*
X0022872Y0045650D01*
X0022772Y0041650D02*
X0030772Y0049650D01*
M02*
