G75*
%MOIN*%
%OFA0B0*%
%FSLAX25Y25*%
%IPPOS*%
%LPD*%
%AMOC8*
5,1,8,0,0,1.08239X$1,22.5*
%
%ADD10C,0.05150*%
%ADD11R,0.06299X0.06299*%
%ADD12OC8,0.06299*%
%ADD13R,0.02600X0.08000*%
%ADD14R,0.10000X0.10000*%
%ADD15C,0.04559*%
D10*
X0199094Y0094370D03*
X0210906Y0094370D03*
D11*
X0115945Y0012874D03*
D12*
X0125945Y0012874D03*
X0135945Y0012874D03*
X0145945Y0012874D03*
X0155945Y0012874D03*
X0165945Y0012874D03*
X0175945Y0012874D03*
X0175945Y0098701D03*
X0165945Y0098701D03*
X0155945Y0098701D03*
X0145945Y0098701D03*
X0135945Y0098701D03*
X0125945Y0098701D03*
X0115945Y0098701D03*
D13*
X0164508Y0068501D03*
X0169508Y0068501D03*
X0174508Y0068501D03*
X0179508Y0068501D03*
X0184508Y0068501D03*
X0189508Y0068501D03*
X0194508Y0068501D03*
X0199508Y0068501D03*
X0204508Y0068501D03*
X0209508Y0068501D03*
X0214508Y0068501D03*
X0219508Y0068501D03*
X0219508Y0028901D03*
X0214508Y0028901D03*
X0209508Y0028901D03*
X0204508Y0028901D03*
X0199508Y0028901D03*
X0194508Y0028901D03*
X0189508Y0028901D03*
X0184508Y0028901D03*
X0179508Y0028901D03*
X0174508Y0028901D03*
X0169508Y0028901D03*
X0164508Y0028901D03*
D14*
X0014843Y0021437D03*
X0014843Y0050768D03*
D15*
X0013744Y0067598D02*
X0018303Y0067598D01*
X0018303Y0072598D02*
X0013744Y0072598D01*
X0013744Y0077598D02*
X0018303Y0077598D01*
X0018303Y0082598D02*
X0013744Y0082598D01*
X0013744Y0087598D02*
X0018303Y0087598D01*
M02*
