G75*
%MOIN*%
%OFA0B0*%
%FSLAX25Y25*%
%IPPOS*%
%LPD*%
%AMOC8*
5,1,8,0,0,1.08239X$1,22.5*
%
%ADD10C,0.05150*%
%ADD11R,0.06299X0.06299*%
%ADD12OC8,0.06299*%
%ADD13R,0.02600X0.08000*%
%ADD14R,0.10000X0.10000*%
%ADD15C,0.04559*%
%ADD16C,0.01969*%
%ADD17C,0.02781*%
%ADD18C,0.01181*%
D10*
X0199094Y0094370D03*
X0210906Y0094370D03*
D11*
X0115945Y0012874D03*
D12*
X0125945Y0012874D03*
X0135945Y0012874D03*
X0145945Y0012874D03*
X0155945Y0012874D03*
X0165945Y0012874D03*
X0175945Y0012874D03*
X0175945Y0098701D03*
X0165945Y0098701D03*
X0155945Y0098701D03*
X0145945Y0098701D03*
X0135945Y0098701D03*
X0125945Y0098701D03*
X0115945Y0098701D03*
D13*
X0164508Y0068501D03*
X0169508Y0068501D03*
X0174508Y0068501D03*
X0179508Y0068501D03*
X0184508Y0068501D03*
X0189508Y0068501D03*
X0194508Y0068501D03*
X0199508Y0068501D03*
X0204508Y0068501D03*
X0209508Y0068501D03*
X0214508Y0068501D03*
X0219508Y0068501D03*
X0219508Y0028901D03*
X0214508Y0028901D03*
X0209508Y0028901D03*
X0204508Y0028901D03*
X0199508Y0028901D03*
X0194508Y0028901D03*
X0189508Y0028901D03*
X0184508Y0028901D03*
X0179508Y0028901D03*
X0174508Y0028901D03*
X0169508Y0028901D03*
X0164508Y0028901D03*
D14*
X0014843Y0021437D03*
X0014843Y0050768D03*
D15*
X0013744Y0067598D02*
X0018303Y0067598D01*
X0018303Y0072598D02*
X0013744Y0072598D01*
X0013744Y0077598D02*
X0018303Y0077598D01*
X0018303Y0082598D02*
X0013744Y0082598D01*
X0013744Y0087598D02*
X0018303Y0087598D01*
D16*
X0021929Y0086299D02*
X0021733Y0085765D01*
X0017992Y0091220D02*
X0017992Y0091468D01*
X0084362Y0088318D02*
X0094158Y0078522D01*
X0094604Y0078522D01*
X0095494Y0078077D01*
X0098166Y0078077D01*
X0106181Y0070062D01*
X0106181Y0067390D01*
X0104400Y0065609D01*
X0103509Y0065609D01*
X0094158Y0056258D01*
X0106181Y0044236D01*
X0094158Y0056258D02*
X0083026Y0045126D01*
X0082136Y0045572D01*
X0073230Y0045572D01*
X0057200Y0061602D01*
X0050521Y0061602D01*
X0050076Y0060711D01*
X0046069Y0056704D01*
X0046069Y0019746D01*
X0046959Y0018855D01*
X0047404Y0018855D01*
X0083026Y0033549D02*
X0083026Y0045126D01*
X0083026Y0033549D02*
X0083472Y0033549D01*
X0019961Y0056772D02*
X0020113Y0057342D01*
X0160950Y0052251D02*
X0167183Y0046017D01*
X0167629Y0046017D01*
X0180764Y0032881D01*
X0179651Y0031768D01*
X0179651Y0029096D01*
X0179508Y0028901D01*
X0180764Y0032881D02*
X0182768Y0034885D01*
X0194791Y0034885D01*
X0194791Y0036666D01*
X0194791Y0034885D02*
X0201470Y0034885D01*
X0204141Y0032213D01*
X0204141Y0029096D01*
X0204508Y0028901D01*
X0189447Y0058930D02*
X0189447Y0068281D01*
X0189508Y0068501D01*
X0189002Y0069171D01*
X0189002Y0071843D01*
X0175644Y0085201D01*
D17*
X0175644Y0085201D03*
X0186330Y0090544D03*
X0191228Y0087873D03*
X0204587Y0078967D03*
X0194791Y0060266D03*
X0189447Y0058930D03*
X0166293Y0059375D03*
X0160950Y0052251D03*
X0160950Y0047353D03*
X0166293Y0042900D03*
X0179206Y0038893D03*
X0169410Y0035776D03*
X0163621Y0035330D03*
X0158278Y0032213D03*
X0145365Y0029542D03*
X0138241Y0030432D03*
X0135569Y0033104D03*
X0143584Y0023753D03*
X0140467Y0021081D03*
X0159614Y0016629D03*
X0163176Y0017519D03*
X0163176Y0022863D03*
X0176089Y0022863D03*
X0194791Y0036666D03*
X0208149Y0035330D03*
X0211711Y0035776D03*
X0217054Y0034885D03*
X0182323Y0009059D03*
X0106181Y0039783D03*
X0106181Y0044236D03*
X0094158Y0051806D03*
X0083026Y0062937D03*
X0077683Y0069171D03*
X0067598Y0070748D03*
X0057200Y0068726D03*
X0050521Y0061602D03*
X0077683Y0078077D03*
X0094604Y0078522D03*
X0095494Y0088318D03*
X0084362Y0088318D03*
X0083917Y0091880D03*
X0071142Y0091614D03*
X0103064Y0068726D03*
X0139576Y0082084D03*
X0049185Y0035330D03*
X0054529Y0029987D03*
X0074121Y0024198D03*
X0083472Y0033549D03*
X0047404Y0018855D03*
D18*
X0006181Y0006575D02*
X0006181Y0105000D01*
X0123461Y0105000D01*
X0122656Y0104195D01*
X0119622Y0101161D01*
X0117743Y0103041D01*
X0114147Y0103041D01*
X0111605Y0100499D01*
X0111605Y0096903D01*
X0114147Y0094361D01*
X0117743Y0094361D01*
X0119539Y0096157D01*
X0119539Y0095595D01*
X0120582Y0094552D01*
X0136459Y0078675D01*
X0136459Y0049872D01*
X0098075Y0088256D01*
X0098075Y0088832D01*
X0097682Y0089780D01*
X0096956Y0090506D01*
X0096008Y0090899D01*
X0094981Y0090899D01*
X0094032Y0090506D01*
X0093306Y0089780D01*
X0092913Y0088832D01*
X0092913Y0087805D01*
X0093306Y0086856D01*
X0094032Y0086130D01*
X0094981Y0085737D01*
X0095556Y0085737D01*
X0133788Y0047506D01*
X0133788Y0034973D01*
X0133381Y0034566D01*
X0132988Y0033617D01*
X0132988Y0032591D01*
X0133381Y0031642D01*
X0134107Y0030916D01*
X0135055Y0030523D01*
X0135659Y0030523D01*
X0135659Y0029919D01*
X0136000Y0029096D01*
X0086436Y0029096D01*
X0084395Y0031138D01*
X0084934Y0031361D01*
X0085660Y0032087D01*
X0086053Y0033036D01*
X0086053Y0034063D01*
X0085660Y0035011D01*
X0085201Y0035470D01*
X0085201Y0044226D01*
X0091779Y0050804D01*
X0091970Y0050343D01*
X0092696Y0049617D01*
X0093645Y0049224D01*
X0094221Y0049224D01*
X0103600Y0039845D01*
X0103600Y0039270D01*
X0103993Y0038321D01*
X0104719Y0037595D01*
X0105667Y0037202D01*
X0106694Y0037202D01*
X0107643Y0037595D01*
X0108369Y0038321D01*
X0108762Y0039270D01*
X0108762Y0040296D01*
X0108369Y0041245D01*
X0107643Y0041971D01*
X0107550Y0042009D01*
X0107643Y0042048D01*
X0108369Y0042774D01*
X0108762Y0043722D01*
X0108762Y0044749D01*
X0108369Y0045698D01*
X0107643Y0046424D01*
X0106694Y0046817D01*
X0106675Y0046817D01*
X0097234Y0056258D01*
X0104410Y0063434D01*
X0105300Y0063434D01*
X0107082Y0065215D01*
X0108355Y0066489D01*
X0108355Y0070963D01*
X0100341Y0078978D01*
X0099067Y0080252D01*
X0096524Y0080252D01*
X0096066Y0080710D01*
X0095117Y0081103D01*
X0094653Y0081103D01*
X0086943Y0088813D01*
X0086943Y0088832D01*
X0086550Y0089780D01*
X0086009Y0090322D01*
X0086105Y0090418D01*
X0086498Y0091367D01*
X0086498Y0092394D01*
X0086105Y0093342D01*
X0085379Y0094068D01*
X0084430Y0094461D01*
X0083404Y0094461D01*
X0082455Y0094068D01*
X0081729Y0093342D01*
X0081336Y0092394D01*
X0081336Y0091818D01*
X0060025Y0070507D01*
X0059070Y0070507D01*
X0058662Y0070914D01*
X0057714Y0071307D01*
X0056687Y0071307D01*
X0055738Y0070914D01*
X0055012Y0070188D01*
X0054789Y0069649D01*
X0040127Y0084311D01*
X0021350Y0084311D01*
X0021245Y0084564D01*
X0020993Y0084816D01*
X0021309Y0085131D01*
X0021733Y0085765D01*
X0022024Y0086470D01*
X0022173Y0087217D01*
X0022173Y0087549D01*
X0016073Y0087549D01*
X0016073Y0087648D01*
X0015974Y0087648D01*
X0015974Y0091468D01*
X0013363Y0091468D01*
X0012615Y0091320D01*
X0011911Y0091028D01*
X0011277Y0090605D01*
X0010738Y0090065D01*
X0010314Y0089432D01*
X0010023Y0088727D01*
X0009874Y0087980D01*
X0009874Y0087648D01*
X0015974Y0087648D01*
X0015974Y0087549D01*
X0009874Y0087549D01*
X0009874Y0087217D01*
X0010023Y0086470D01*
X0010314Y0085765D01*
X0010738Y0085131D01*
X0011054Y0084816D01*
X0010802Y0084564D01*
X0010274Y0083289D01*
X0010274Y0081908D01*
X0010802Y0080633D01*
X0011337Y0080098D01*
X0010802Y0079564D01*
X0010274Y0078289D01*
X0010274Y0076908D01*
X0010802Y0075633D01*
X0011337Y0075098D01*
X0010802Y0074564D01*
X0010274Y0073289D01*
X0010274Y0071908D01*
X0010802Y0070633D01*
X0011337Y0070098D01*
X0010802Y0069564D01*
X0010274Y0068289D01*
X0010274Y0066908D01*
X0010802Y0065633D01*
X0011778Y0064657D01*
X0013054Y0064128D01*
X0018993Y0064128D01*
X0020269Y0064657D01*
X0021245Y0065633D01*
X0021773Y0066908D01*
X0021773Y0068289D01*
X0021245Y0069564D01*
X0020711Y0070098D01*
X0021245Y0070633D01*
X0021773Y0071908D01*
X0021773Y0073289D01*
X0021245Y0074564D01*
X0020711Y0075098D01*
X0021245Y0075633D01*
X0021773Y0076908D01*
X0021773Y0078289D01*
X0021245Y0079564D01*
X0020711Y0080098D01*
X0021245Y0080633D01*
X0021293Y0080748D01*
X0038652Y0080748D01*
X0055624Y0063776D01*
X0051997Y0063776D01*
X0051983Y0063790D01*
X0051035Y0064183D01*
X0050008Y0064183D01*
X0049059Y0063790D01*
X0048333Y0063064D01*
X0047940Y0062115D01*
X0047940Y0061651D01*
X0043894Y0057604D01*
X0043894Y0018845D01*
X0045125Y0017614D01*
X0045216Y0017393D01*
X0045942Y0016667D01*
X0046891Y0016274D01*
X0047918Y0016274D01*
X0048866Y0016667D01*
X0049592Y0017393D01*
X0049985Y0018342D01*
X0049985Y0019369D01*
X0049592Y0020317D01*
X0048866Y0021043D01*
X0048243Y0021301D01*
X0048243Y0032927D01*
X0048672Y0032749D01*
X0049699Y0032749D01*
X0050648Y0033142D01*
X0051055Y0033549D01*
X0076945Y0033549D01*
X0078726Y0031768D01*
X0056398Y0031768D01*
X0055991Y0032175D01*
X0055042Y0032568D01*
X0054015Y0032568D01*
X0053067Y0032175D01*
X0052341Y0031449D01*
X0051948Y0030500D01*
X0051948Y0029474D01*
X0052341Y0028525D01*
X0053067Y0027799D01*
X0054015Y0027406D01*
X0055042Y0027406D01*
X0055991Y0027799D01*
X0056398Y0028206D01*
X0079617Y0028206D01*
X0081843Y0025980D01*
X0075990Y0025980D01*
X0075583Y0026387D01*
X0074634Y0026780D01*
X0073607Y0026780D01*
X0072659Y0026387D01*
X0071933Y0025660D01*
X0071540Y0024712D01*
X0071540Y0023685D01*
X0071933Y0022736D01*
X0072659Y0022010D01*
X0073607Y0021617D01*
X0074634Y0021617D01*
X0075583Y0022010D01*
X0075990Y0022417D01*
X0082734Y0022417D01*
X0083179Y0021972D01*
X0126371Y0021972D01*
X0126218Y0021819D01*
X0120285Y0015886D01*
X0120285Y0016517D01*
X0119588Y0017214D01*
X0112302Y0017214D01*
X0111605Y0016517D01*
X0111605Y0009231D01*
X0112302Y0008534D01*
X0119588Y0008534D01*
X0120285Y0009231D01*
X0120285Y0011285D01*
X0120722Y0011285D01*
X0121605Y0012168D01*
X0121605Y0011076D01*
X0124147Y0008534D01*
X0127743Y0008534D01*
X0130285Y0011076D01*
X0130285Y0014672D01*
X0127743Y0017214D01*
X0126651Y0017214D01*
X0128737Y0019300D01*
X0138598Y0019300D01*
X0139005Y0018893D01*
X0139229Y0018800D01*
X0137643Y0017214D01*
X0134147Y0017214D01*
X0131605Y0014672D01*
X0131605Y0011076D01*
X0134147Y0008534D01*
X0137743Y0008534D01*
X0140285Y0011076D01*
X0140285Y0014672D01*
X0140212Y0014745D01*
X0141205Y0015738D01*
X0142671Y0015738D01*
X0141605Y0014672D01*
X0141605Y0011076D01*
X0144147Y0008534D01*
X0147743Y0008534D01*
X0147783Y0008575D01*
X0149783Y0006575D01*
X0006181Y0006575D01*
X0006181Y0006966D02*
X0149392Y0006966D01*
X0148213Y0008145D02*
X0006181Y0008145D01*
X0006181Y0009325D02*
X0111605Y0009325D01*
X0111605Y0010504D02*
X0006181Y0010504D01*
X0006181Y0011684D02*
X0111605Y0011684D01*
X0111605Y0012864D02*
X0006181Y0012864D01*
X0006181Y0014043D02*
X0111605Y0014043D01*
X0111605Y0015223D02*
X0020878Y0015223D01*
X0020819Y0015164D02*
X0021115Y0015460D01*
X0021325Y0015823D01*
X0021433Y0016228D01*
X0021433Y0020846D01*
X0015433Y0020846D01*
X0015433Y0014846D01*
X0020052Y0014846D01*
X0020456Y0014955D01*
X0020819Y0015164D01*
X0021433Y0016402D02*
X0046581Y0016402D01*
X0048228Y0016402D02*
X0111605Y0016402D01*
X0115977Y0013067D02*
X0115945Y0012874D01*
X0115977Y0013067D02*
X0119984Y0013067D01*
X0127999Y0021081D01*
X0140467Y0021081D01*
X0143048Y0021121D02*
X0157833Y0021121D01*
X0157833Y0022301D02*
X0145776Y0022301D01*
X0145772Y0022291D02*
X0146165Y0023240D01*
X0146165Y0024267D01*
X0145772Y0025215D01*
X0145046Y0025941D01*
X0144507Y0026165D01*
X0145303Y0026961D01*
X0145878Y0026961D01*
X0146827Y0027354D01*
X0147553Y0028080D01*
X0147946Y0029028D01*
X0147946Y0030055D01*
X0147790Y0030432D01*
X0156409Y0030432D01*
X0156816Y0030025D01*
X0157765Y0029632D01*
X0158791Y0029632D01*
X0159169Y0029789D01*
X0159169Y0025381D01*
X0158876Y0025089D01*
X0157833Y0024046D01*
X0157833Y0018498D01*
X0157426Y0018091D01*
X0157063Y0017214D01*
X0154147Y0017214D01*
X0152281Y0015348D01*
X0149372Y0018257D01*
X0148329Y0019300D01*
X0142336Y0019300D01*
X0142655Y0019619D01*
X0143048Y0020568D01*
X0143048Y0021181D01*
X0143070Y0021172D01*
X0144097Y0021172D01*
X0145046Y0021565D01*
X0145772Y0022291D01*
X0146165Y0023480D02*
X0157833Y0023480D01*
X0158447Y0024660D02*
X0146002Y0024660D01*
X0145148Y0025839D02*
X0159169Y0025839D01*
X0159169Y0027019D02*
X0146019Y0027019D01*
X0147602Y0028199D02*
X0159169Y0028199D01*
X0159169Y0029378D02*
X0147946Y0029378D01*
X0145365Y0029542D02*
X0141357Y0025534D01*
X0084807Y0025534D01*
X0080355Y0029987D01*
X0054529Y0029987D01*
X0056391Y0028199D02*
X0079624Y0028199D01*
X0080804Y0027019D02*
X0048243Y0027019D01*
X0048243Y0025839D02*
X0072112Y0025839D01*
X0071540Y0024660D02*
X0048243Y0024660D01*
X0048243Y0023480D02*
X0071625Y0023480D01*
X0072369Y0022301D02*
X0048243Y0022301D01*
X0048679Y0021121D02*
X0125520Y0021121D01*
X0124340Y0019941D02*
X0049748Y0019941D01*
X0049985Y0018762D02*
X0123161Y0018762D01*
X0121981Y0017582D02*
X0049671Y0017582D01*
X0045138Y0017582D02*
X0021433Y0017582D01*
X0021433Y0018762D02*
X0043977Y0018762D01*
X0043894Y0019941D02*
X0021433Y0019941D01*
X0021433Y0022028D02*
X0015433Y0022028D01*
X0014252Y0022028D01*
X0014252Y0028028D01*
X0009633Y0028028D01*
X0009229Y0027919D01*
X0008866Y0027710D01*
X0008570Y0027414D01*
X0008360Y0027051D01*
X0008252Y0026646D01*
X0008252Y0022028D01*
X0014252Y0022028D01*
X0014252Y0020846D01*
X0015433Y0020846D01*
X0015433Y0022028D01*
X0015433Y0028028D01*
X0020052Y0028028D01*
X0020456Y0027919D01*
X0020819Y0027710D01*
X0021115Y0027414D01*
X0021325Y0027051D01*
X0021433Y0026646D01*
X0021433Y0022028D01*
X0021433Y0022301D02*
X0043894Y0022301D01*
X0043894Y0023480D02*
X0028350Y0023480D01*
X0028723Y0023635D02*
X0029692Y0024604D01*
X0030217Y0025870D01*
X0030217Y0027240D01*
X0029692Y0028506D01*
X0028723Y0029476D01*
X0027457Y0030000D01*
X0026086Y0030000D01*
X0024820Y0029476D01*
X0023851Y0028506D01*
X0023327Y0027240D01*
X0023327Y0025870D01*
X0023851Y0024604D01*
X0024820Y0023635D01*
X0026086Y0023110D01*
X0027457Y0023110D01*
X0028723Y0023635D01*
X0029715Y0024660D02*
X0043894Y0024660D01*
X0043894Y0025839D02*
X0030204Y0025839D01*
X0030217Y0027019D02*
X0043894Y0027019D01*
X0043894Y0028199D02*
X0029820Y0028199D01*
X0028820Y0029378D02*
X0043894Y0029378D01*
X0043894Y0030558D02*
X0006181Y0030558D01*
X0006181Y0031737D02*
X0043894Y0031737D01*
X0043894Y0032917D02*
X0006181Y0032917D01*
X0006181Y0034097D02*
X0043894Y0034097D01*
X0043894Y0035276D02*
X0006181Y0035276D01*
X0006181Y0036456D02*
X0043894Y0036456D01*
X0043894Y0037635D02*
X0006181Y0037635D01*
X0006181Y0038815D02*
X0043894Y0038815D01*
X0043894Y0039995D02*
X0006181Y0039995D01*
X0006181Y0041174D02*
X0043894Y0041174D01*
X0043894Y0042354D02*
X0027817Y0042354D01*
X0027457Y0042205D02*
X0028723Y0042729D01*
X0029692Y0043698D01*
X0030217Y0044964D01*
X0030217Y0046335D01*
X0029692Y0047601D01*
X0028723Y0048570D01*
X0027457Y0049094D01*
X0026086Y0049094D01*
X0024820Y0048570D01*
X0023851Y0047601D01*
X0023327Y0046335D01*
X0023327Y0044964D01*
X0023851Y0043698D01*
X0024820Y0042729D01*
X0026086Y0042205D01*
X0027457Y0042205D01*
X0025726Y0042354D02*
X0006181Y0042354D01*
X0006181Y0043534D02*
X0024016Y0043534D01*
X0023431Y0044713D02*
X0021037Y0044713D01*
X0021115Y0044791D02*
X0021325Y0045154D01*
X0021433Y0045558D01*
X0021433Y0050177D01*
X0015433Y0050177D01*
X0015433Y0044177D01*
X0020052Y0044177D01*
X0020456Y0044286D01*
X0020819Y0044495D01*
X0021115Y0044791D01*
X0021433Y0045893D02*
X0023327Y0045893D01*
X0023632Y0047072D02*
X0021433Y0047072D01*
X0021433Y0048252D02*
X0024502Y0048252D01*
X0021433Y0049432D02*
X0043894Y0049432D01*
X0043894Y0050611D02*
X0015433Y0050611D01*
X0015433Y0050177D02*
X0015433Y0051358D01*
X0021433Y0051358D01*
X0021433Y0055977D01*
X0021325Y0056382D01*
X0021115Y0056744D01*
X0020819Y0057040D01*
X0020456Y0057250D01*
X0020052Y0057358D01*
X0015433Y0057358D01*
X0015433Y0051358D01*
X0014252Y0051358D01*
X0014252Y0050177D01*
X0015433Y0050177D01*
X0015433Y0049432D02*
X0014252Y0049432D01*
X0014252Y0050177D02*
X0014252Y0044177D01*
X0009633Y0044177D01*
X0009229Y0044286D01*
X0008866Y0044495D01*
X0008570Y0044791D01*
X0008360Y0045154D01*
X0008252Y0045558D01*
X0008252Y0050177D01*
X0014252Y0050177D01*
X0014252Y0050611D02*
X0006181Y0050611D01*
X0006181Y0049432D02*
X0008252Y0049432D01*
X0008252Y0048252D02*
X0006181Y0048252D01*
X0006181Y0047072D02*
X0008252Y0047072D01*
X0008252Y0045893D02*
X0006181Y0045893D01*
X0006181Y0044713D02*
X0008648Y0044713D01*
X0014252Y0044713D02*
X0015433Y0044713D01*
X0015433Y0045893D02*
X0014252Y0045893D01*
X0014252Y0047072D02*
X0015433Y0047072D01*
X0015433Y0048252D02*
X0014252Y0048252D01*
X0014252Y0051358D02*
X0008252Y0051358D01*
X0008252Y0055977D01*
X0008360Y0056382D01*
X0008570Y0056744D01*
X0008866Y0057040D01*
X0009229Y0057250D01*
X0009633Y0057358D01*
X0014252Y0057358D01*
X0014252Y0051358D01*
X0014252Y0051791D02*
X0015433Y0051791D01*
X0015433Y0052970D02*
X0014252Y0052970D01*
X0014252Y0054150D02*
X0015433Y0054150D01*
X0015433Y0055330D02*
X0014252Y0055330D01*
X0014252Y0056509D02*
X0015433Y0056509D01*
X0021251Y0056509D02*
X0043894Y0056509D01*
X0043894Y0055330D02*
X0021433Y0055330D01*
X0021433Y0054150D02*
X0043894Y0054150D01*
X0048243Y0054150D02*
X0061576Y0054150D01*
X0060397Y0055330D02*
X0048243Y0055330D01*
X0048243Y0055803D02*
X0048243Y0037734D01*
X0048672Y0037911D01*
X0049699Y0037911D01*
X0050648Y0037518D01*
X0051055Y0037111D01*
X0078421Y0037111D01*
X0080852Y0034681D01*
X0080852Y0043397D01*
X0072329Y0043397D01*
X0071056Y0044671D01*
X0056300Y0059427D01*
X0051997Y0059427D01*
X0051983Y0059413D01*
X0051826Y0059348D01*
X0051618Y0058933D01*
X0051251Y0058810D01*
X0048243Y0055803D01*
X0048950Y0056509D02*
X0059217Y0056509D01*
X0058037Y0057689D02*
X0050129Y0057689D01*
X0051426Y0058869D02*
X0056858Y0058869D01*
X0060721Y0061156D02*
X0081157Y0061156D01*
X0081564Y0060749D01*
X0082513Y0060356D01*
X0083540Y0060356D01*
X0084488Y0060749D01*
X0085215Y0061475D01*
X0085607Y0062424D01*
X0085607Y0063451D01*
X0085215Y0064399D01*
X0084488Y0065126D01*
X0083540Y0065518D01*
X0082513Y0065518D01*
X0081564Y0065126D01*
X0081157Y0064718D01*
X0059719Y0064718D01*
X0058123Y0066314D01*
X0058662Y0066538D01*
X0059070Y0066945D01*
X0061500Y0066945D01*
X0081951Y0087395D01*
X0082174Y0086856D01*
X0082900Y0086130D01*
X0083849Y0085737D01*
X0083868Y0085737D01*
X0091983Y0077621D01*
X0092324Y0077281D01*
X0092415Y0077060D01*
X0093141Y0076334D01*
X0094090Y0075941D01*
X0094554Y0075941D01*
X0094593Y0075902D01*
X0094981Y0075902D01*
X0095327Y0075729D01*
X0095847Y0075902D01*
X0097265Y0075902D01*
X0102062Y0071105D01*
X0101602Y0070914D01*
X0101195Y0070507D01*
X0079923Y0070507D01*
X0079871Y0070633D01*
X0079464Y0071040D01*
X0079464Y0076208D01*
X0079871Y0076615D01*
X0080264Y0077563D01*
X0080264Y0078590D01*
X0079871Y0079539D01*
X0079145Y0080265D01*
X0078196Y0080658D01*
X0077170Y0080658D01*
X0076221Y0080265D01*
X0075495Y0079539D01*
X0075102Y0078590D01*
X0075102Y0077563D01*
X0075495Y0076615D01*
X0075902Y0076208D01*
X0075902Y0071040D01*
X0075495Y0070633D01*
X0075102Y0069685D01*
X0075102Y0068658D01*
X0075495Y0067709D01*
X0076221Y0066983D01*
X0077170Y0066590D01*
X0078196Y0066590D01*
X0079053Y0066945D01*
X0101195Y0066945D01*
X0101482Y0066658D01*
X0101334Y0066510D01*
X0093257Y0058433D01*
X0091983Y0057159D01*
X0082597Y0047773D01*
X0082303Y0047920D01*
X0081783Y0047746D01*
X0074131Y0047746D01*
X0060721Y0061156D01*
X0061829Y0060048D02*
X0094873Y0060048D01*
X0096052Y0061228D02*
X0084967Y0061228D01*
X0085601Y0062407D02*
X0097232Y0062407D01*
X0098411Y0063587D02*
X0085551Y0063587D01*
X0084847Y0064767D02*
X0099591Y0064767D01*
X0100771Y0065946D02*
X0058492Y0065946D01*
X0059671Y0064767D02*
X0081205Y0064767D01*
X0083026Y0062937D02*
X0058981Y0062937D01*
X0039389Y0082530D01*
X0016235Y0082530D01*
X0016024Y0082598D01*
X0020714Y0080102D02*
X0039298Y0080102D01*
X0043157Y0081281D02*
X0070799Y0081281D01*
X0069619Y0080102D02*
X0044336Y0080102D01*
X0045516Y0078922D02*
X0068440Y0078922D01*
X0067260Y0077742D02*
X0046695Y0077742D01*
X0047875Y0076563D02*
X0066080Y0076563D01*
X0064901Y0075383D02*
X0049055Y0075383D01*
X0050234Y0074204D02*
X0063721Y0074204D01*
X0062542Y0073024D02*
X0051414Y0073024D01*
X0052593Y0071844D02*
X0061362Y0071844D01*
X0060182Y0070665D02*
X0058912Y0070665D01*
X0055489Y0070665D02*
X0053773Y0070665D01*
X0049915Y0069485D02*
X0021278Y0069485D01*
X0021258Y0070665D02*
X0048735Y0070665D01*
X0047556Y0071844D02*
X0021747Y0071844D01*
X0021773Y0073024D02*
X0046376Y0073024D01*
X0045197Y0074204D02*
X0021394Y0074204D01*
X0020995Y0075383D02*
X0044017Y0075383D01*
X0042837Y0076563D02*
X0021630Y0076563D01*
X0021773Y0077742D02*
X0041658Y0077742D01*
X0040478Y0078922D02*
X0021511Y0078922D01*
X0011334Y0080102D02*
X0006181Y0080102D01*
X0006181Y0081281D02*
X0010534Y0081281D01*
X0010274Y0082461D02*
X0006181Y0082461D01*
X0006181Y0083640D02*
X0010420Y0083640D01*
X0011049Y0084820D02*
X0006181Y0084820D01*
X0006181Y0086000D02*
X0010217Y0086000D01*
X0009882Y0087179D02*
X0006181Y0087179D01*
X0006181Y0088359D02*
X0009949Y0088359D01*
X0010386Y0089538D02*
X0006181Y0089538D01*
X0006181Y0090718D02*
X0011447Y0090718D01*
X0006181Y0091898D02*
X0081336Y0091898D01*
X0080236Y0090718D02*
X0020600Y0090718D01*
X0020770Y0090605D02*
X0020136Y0091028D01*
X0019432Y0091320D01*
X0018684Y0091468D01*
X0016073Y0091468D01*
X0016073Y0087648D01*
X0022173Y0087648D01*
X0022173Y0087980D01*
X0022024Y0088727D01*
X0021733Y0089432D01*
X0021309Y0090065D01*
X0020770Y0090605D01*
X0021661Y0089538D02*
X0079056Y0089538D01*
X0077877Y0088359D02*
X0022098Y0088359D01*
X0022166Y0087179D02*
X0076697Y0087179D01*
X0075517Y0086000D02*
X0021830Y0086000D01*
X0020998Y0084820D02*
X0074338Y0084820D01*
X0073158Y0083640D02*
X0040797Y0083640D01*
X0041977Y0082461D02*
X0071979Y0082461D01*
X0074657Y0080102D02*
X0076058Y0080102D01*
X0075837Y0081281D02*
X0088323Y0081281D01*
X0087144Y0082461D02*
X0077016Y0082461D01*
X0078196Y0083640D02*
X0085964Y0083640D01*
X0084785Y0084820D02*
X0079375Y0084820D01*
X0080555Y0086000D02*
X0083215Y0086000D01*
X0082040Y0087179D02*
X0081735Y0087179D01*
X0086650Y0089538D02*
X0093206Y0089538D01*
X0092913Y0088359D02*
X0087397Y0088359D01*
X0088577Y0087179D02*
X0093172Y0087179D01*
X0094347Y0086000D02*
X0089756Y0086000D01*
X0090936Y0084820D02*
X0096473Y0084820D01*
X0097653Y0083640D02*
X0092116Y0083640D01*
X0093295Y0082461D02*
X0098833Y0082461D01*
X0100012Y0081281D02*
X0094475Y0081281D01*
X0089503Y0080102D02*
X0079308Y0080102D01*
X0080127Y0078922D02*
X0090683Y0078922D01*
X0091862Y0077742D02*
X0080264Y0077742D01*
X0079819Y0076563D02*
X0092913Y0076563D01*
X0097784Y0075383D02*
X0079464Y0075383D01*
X0079464Y0074204D02*
X0098963Y0074204D01*
X0100143Y0073024D02*
X0079464Y0073024D01*
X0079464Y0071844D02*
X0101323Y0071844D01*
X0101352Y0070665D02*
X0079840Y0070665D01*
X0075902Y0071844D02*
X0066400Y0071844D01*
X0065220Y0070665D02*
X0075526Y0070665D01*
X0075102Y0069485D02*
X0064041Y0069485D01*
X0062861Y0068305D02*
X0075248Y0068305D01*
X0076078Y0067126D02*
X0061681Y0067126D01*
X0060763Y0068726D02*
X0083917Y0091880D01*
X0086498Y0091898D02*
X0123237Y0091898D01*
X0124416Y0090718D02*
X0096445Y0090718D01*
X0097782Y0089538D02*
X0125596Y0089538D01*
X0126775Y0088359D02*
X0098075Y0088359D01*
X0099152Y0087179D02*
X0127955Y0087179D01*
X0129135Y0086000D02*
X0100331Y0086000D01*
X0101511Y0084820D02*
X0130314Y0084820D01*
X0131494Y0083640D02*
X0102691Y0083640D01*
X0103870Y0082461D02*
X0132673Y0082461D01*
X0133853Y0081281D02*
X0105050Y0081281D01*
X0106229Y0080102D02*
X0135033Y0080102D01*
X0138241Y0079413D02*
X0121320Y0096333D01*
X0121320Y0100341D01*
X0124437Y0103457D01*
X0137350Y0103457D01*
X0141357Y0099450D01*
X0141357Y0096778D01*
X0144029Y0094107D01*
X0147591Y0094107D01*
X0151599Y0098114D01*
X0151599Y0100786D01*
X0154270Y0103457D01*
X0171191Y0103457D01*
X0175644Y0099005D01*
X0175945Y0098701D01*
X0171605Y0098975D02*
X0170285Y0098975D01*
X0170285Y0097796D02*
X0171605Y0097796D01*
X0171605Y0096903D02*
X0172620Y0095888D01*
X0171483Y0095888D01*
X0170285Y0097086D01*
X0170285Y0100499D01*
X0169107Y0101676D01*
X0170453Y0101676D01*
X0171618Y0100512D01*
X0171605Y0100499D01*
X0171605Y0096903D01*
X0171892Y0096616D02*
X0170755Y0096616D01*
X0170746Y0094107D02*
X0166293Y0098559D01*
X0165945Y0098701D01*
X0170285Y0100155D02*
X0171605Y0100155D01*
X0170795Y0101335D02*
X0169449Y0101335D01*
X0173710Y0103457D02*
X0174906Y0103457D01*
X0175323Y0103041D01*
X0174147Y0103041D01*
X0174137Y0103031D01*
X0173710Y0103457D01*
X0178528Y0104873D02*
X0285709Y0104873D01*
X0285709Y0105000D02*
X0285709Y0006575D01*
X0183070Y0006575D01*
X0183785Y0006871D01*
X0184511Y0007597D01*
X0184904Y0008546D01*
X0184904Y0009121D01*
X0196126Y0020344D01*
X0196126Y0023710D01*
X0196301Y0023710D01*
X0196998Y0024408D01*
X0196998Y0033394D01*
X0196301Y0034091D01*
X0192715Y0034091D01*
X0192017Y0033394D01*
X0192017Y0024408D01*
X0192564Y0023861D01*
X0192564Y0021819D01*
X0191228Y0020483D01*
X0191228Y0023710D01*
X0191301Y0023710D01*
X0191998Y0024408D01*
X0191998Y0033394D01*
X0191301Y0034091D01*
X0187715Y0034091D01*
X0187017Y0033394D01*
X0187017Y0024408D01*
X0187666Y0023759D01*
X0187666Y0020929D01*
X0180285Y0013548D01*
X0180285Y0014672D01*
X0177743Y0017214D01*
X0177412Y0017214D01*
X0183908Y0023710D01*
X0186301Y0023710D01*
X0186998Y0024408D01*
X0186998Y0033394D01*
X0186301Y0034091D01*
X0182715Y0034091D01*
X0182234Y0033611D01*
X0182081Y0033877D01*
X0181784Y0034174D01*
X0181422Y0034383D01*
X0181017Y0034491D01*
X0179567Y0034491D01*
X0179567Y0028960D01*
X0179448Y0028960D01*
X0179448Y0034491D01*
X0177998Y0034491D01*
X0177594Y0034383D01*
X0177231Y0034174D01*
X0176935Y0033877D01*
X0176781Y0033611D01*
X0176301Y0034091D01*
X0176089Y0034091D01*
X0176089Y0035623D01*
X0168874Y0042838D01*
X0168874Y0043413D01*
X0168481Y0044362D01*
X0167755Y0045088D01*
X0166806Y0045481D01*
X0165779Y0045481D01*
X0164831Y0045088D01*
X0164105Y0044362D01*
X0163712Y0043413D01*
X0163712Y0042387D01*
X0164105Y0041438D01*
X0164831Y0040712D01*
X0165779Y0040319D01*
X0166355Y0040319D01*
X0168487Y0038187D01*
X0167948Y0037964D01*
X0167222Y0037238D01*
X0166829Y0036289D01*
X0166829Y0035262D01*
X0167222Y0034314D01*
X0167579Y0033956D01*
X0167017Y0033394D01*
X0167017Y0024408D01*
X0167715Y0023710D01*
X0171301Y0023710D01*
X0171998Y0024408D01*
X0171998Y0033394D01*
X0171338Y0034054D01*
X0171598Y0034314D01*
X0171821Y0034853D01*
X0172527Y0034147D01*
X0172527Y0033903D01*
X0172017Y0033394D01*
X0172017Y0024408D01*
X0172715Y0023710D01*
X0173646Y0023710D01*
X0173508Y0023376D01*
X0173508Y0022800D01*
X0167832Y0017125D01*
X0167743Y0017214D01*
X0165757Y0017214D01*
X0165757Y0018033D01*
X0165364Y0018981D01*
X0164957Y0019388D01*
X0164957Y0020993D01*
X0165364Y0021401D01*
X0165757Y0022349D01*
X0165757Y0023376D01*
X0165619Y0023710D01*
X0166301Y0023710D01*
X0166998Y0024408D01*
X0166998Y0033394D01*
X0166301Y0034091D01*
X0165902Y0034091D01*
X0166202Y0034817D01*
X0166202Y0035844D01*
X0165809Y0036792D01*
X0165083Y0037518D01*
X0164135Y0037911D01*
X0163108Y0037911D01*
X0162731Y0037755D01*
X0162731Y0045484D01*
X0163138Y0045891D01*
X0163531Y0046839D01*
X0163531Y0047866D01*
X0163138Y0048815D01*
X0162412Y0049541D01*
X0161463Y0049934D01*
X0160436Y0049934D01*
X0159488Y0049541D01*
X0158761Y0048815D01*
X0158369Y0047866D01*
X0158369Y0046839D01*
X0158761Y0045891D01*
X0159169Y0045484D01*
X0159169Y0034638D01*
X0158791Y0034794D01*
X0157765Y0034794D01*
X0156816Y0034402D01*
X0156409Y0033994D01*
X0143291Y0033994D01*
X0142248Y0032951D01*
X0140652Y0031355D01*
X0140429Y0031894D01*
X0140022Y0032301D01*
X0140022Y0079503D01*
X0140090Y0079503D01*
X0141038Y0079896D01*
X0141765Y0080622D01*
X0141988Y0081161D01*
X0163712Y0059437D01*
X0163712Y0058862D01*
X0164105Y0057913D01*
X0164831Y0057187D01*
X0165779Y0056794D01*
X0166806Y0056794D01*
X0167755Y0057187D01*
X0168074Y0057506D01*
X0168074Y0047506D01*
X0176625Y0038955D01*
X0176625Y0038379D01*
X0177018Y0037430D01*
X0177744Y0036704D01*
X0178692Y0036311D01*
X0179719Y0036311D01*
X0180668Y0036704D01*
X0181394Y0037430D01*
X0181787Y0038379D01*
X0181787Y0039406D01*
X0181394Y0040355D01*
X0180668Y0041081D01*
X0179719Y0041474D01*
X0179144Y0041474D01*
X0171636Y0048981D01*
X0171636Y0063645D01*
X0171998Y0064008D01*
X0171998Y0072994D01*
X0171301Y0073691D01*
X0167715Y0073691D01*
X0167017Y0072994D01*
X0167017Y0064008D01*
X0167715Y0063310D01*
X0168074Y0063310D01*
X0168074Y0061244D01*
X0167755Y0061563D01*
X0166806Y0061956D01*
X0166231Y0061956D01*
X0164877Y0063310D01*
X0166301Y0063310D01*
X0166998Y0064008D01*
X0166998Y0072994D01*
X0166301Y0073691D01*
X0162715Y0073691D01*
X0162017Y0072994D01*
X0162017Y0066170D01*
X0137795Y0090392D01*
X0137795Y0094413D01*
X0139576Y0096194D01*
X0139576Y0096041D01*
X0142248Y0093369D01*
X0143291Y0092326D01*
X0148329Y0092326D01*
X0152256Y0096252D01*
X0154147Y0094361D01*
X0157743Y0094361D01*
X0157960Y0094578D01*
X0178846Y0073691D01*
X0177715Y0073691D01*
X0177017Y0072994D01*
X0177017Y0064008D01*
X0177715Y0063310D01*
X0178541Y0063310D01*
X0204587Y0037264D01*
X0205630Y0036221D01*
X0205724Y0036221D01*
X0205568Y0035844D01*
X0205568Y0034817D01*
X0205703Y0034491D01*
X0204567Y0034491D01*
X0204567Y0028960D01*
X0204448Y0028960D01*
X0204448Y0034491D01*
X0202998Y0034491D01*
X0202594Y0034383D01*
X0202231Y0034174D01*
X0201935Y0033877D01*
X0201781Y0033611D01*
X0201301Y0034091D01*
X0197715Y0034091D01*
X0197017Y0033394D01*
X0197017Y0024408D01*
X0197715Y0023710D01*
X0199884Y0023710D01*
X0202068Y0021527D01*
X0221800Y0021527D01*
X0223135Y0022863D01*
X0223135Y0022863D01*
X0224179Y0023906D01*
X0224179Y0074561D01*
X0221486Y0077254D01*
X0219517Y0077254D01*
X0211643Y0085128D01*
X0199832Y0085128D01*
X0196939Y0088021D01*
X0196939Y0089990D01*
X0195895Y0091033D01*
X0193927Y0093002D01*
X0187143Y0093002D01*
X0186844Y0093126D01*
X0185817Y0093126D01*
X0184868Y0092733D01*
X0184142Y0092007D01*
X0183919Y0091467D01*
X0182323Y0093063D01*
X0182323Y0101078D01*
X0178401Y0105000D01*
X0285709Y0105000D01*
X0285709Y0103694D02*
X0179707Y0103694D01*
X0180887Y0102514D02*
X0285709Y0102514D01*
X0285709Y0101335D02*
X0182066Y0101335D01*
X0182323Y0100155D02*
X0285709Y0100155D01*
X0285709Y0098975D02*
X0182323Y0098975D01*
X0182323Y0097796D02*
X0197526Y0097796D01*
X0196962Y0097562D02*
X0195902Y0096503D01*
X0195329Y0095119D01*
X0195329Y0093621D01*
X0195902Y0092237D01*
X0196962Y0091178D01*
X0198345Y0090605D01*
X0199843Y0090605D01*
X0201227Y0091178D01*
X0202287Y0092237D01*
X0202860Y0093621D01*
X0202860Y0095119D01*
X0202287Y0096503D01*
X0201227Y0097562D01*
X0199843Y0098135D01*
X0198345Y0098135D01*
X0196962Y0097562D01*
X0196016Y0096616D02*
X0182323Y0096616D01*
X0182323Y0095437D02*
X0195461Y0095437D01*
X0195329Y0094257D02*
X0182323Y0094257D01*
X0182323Y0093077D02*
X0185700Y0093077D01*
X0186960Y0093077D02*
X0195554Y0093077D01*
X0195031Y0091898D02*
X0196242Y0091898D01*
X0196210Y0090718D02*
X0198072Y0090718D01*
X0196939Y0089538D02*
X0285709Y0089538D01*
X0285709Y0088359D02*
X0196939Y0088359D01*
X0197781Y0087179D02*
X0285709Y0087179D01*
X0285709Y0086000D02*
X0198960Y0086000D01*
X0199094Y0083346D02*
X0195157Y0087283D01*
X0195157Y0089252D01*
X0193189Y0091220D01*
X0187006Y0091220D01*
X0186330Y0090544D01*
X0188666Y0089439D02*
X0189145Y0089439D01*
X0189040Y0089335D01*
X0188817Y0088796D01*
X0188522Y0089091D01*
X0188666Y0089439D01*
X0187221Y0087873D02*
X0184994Y0087873D01*
X0180542Y0092326D01*
X0180542Y0100341D01*
X0175644Y0105239D01*
X0152489Y0105239D01*
X0146256Y0099005D01*
X0145945Y0098701D01*
X0142441Y0101335D02*
X0141992Y0101335D01*
X0142095Y0101231D02*
X0138326Y0105000D01*
X0149732Y0105000D01*
X0147758Y0103026D01*
X0147743Y0103041D01*
X0144147Y0103041D01*
X0142216Y0101110D01*
X0142095Y0101231D01*
X0140812Y0102514D02*
X0143620Y0102514D01*
X0139632Y0103694D02*
X0148426Y0103694D01*
X0149605Y0104873D02*
X0138453Y0104873D01*
X0132783Y0101676D02*
X0129107Y0101676D01*
X0130285Y0100499D01*
X0130285Y0096903D01*
X0129449Y0096067D01*
X0134233Y0091282D01*
X0134233Y0094361D01*
X0134147Y0094361D01*
X0131605Y0096903D01*
X0131605Y0100499D01*
X0132783Y0101676D01*
X0132441Y0101335D02*
X0129449Y0101335D01*
X0130285Y0100155D02*
X0131605Y0100155D01*
X0131605Y0098975D02*
X0130285Y0098975D01*
X0130285Y0097796D02*
X0131605Y0097796D01*
X0131892Y0096616D02*
X0129998Y0096616D01*
X0130079Y0095437D02*
X0133071Y0095437D01*
X0134233Y0094257D02*
X0131258Y0094257D01*
X0132438Y0093077D02*
X0134233Y0093077D01*
X0137795Y0093077D02*
X0142540Y0093077D01*
X0141360Y0094257D02*
X0137795Y0094257D01*
X0138819Y0095437D02*
X0140180Y0095437D01*
X0136014Y0098559D02*
X0135945Y0098701D01*
X0136014Y0098559D02*
X0136014Y0089654D01*
X0166293Y0059375D01*
X0164329Y0057689D02*
X0140022Y0057689D01*
X0140022Y0058869D02*
X0163712Y0058869D01*
X0163101Y0060048D02*
X0140022Y0060048D01*
X0140022Y0061228D02*
X0161922Y0061228D01*
X0160742Y0062407D02*
X0140022Y0062407D01*
X0140022Y0063587D02*
X0159562Y0063587D01*
X0158383Y0064767D02*
X0140022Y0064767D01*
X0140022Y0065946D02*
X0157203Y0065946D01*
X0156023Y0067126D02*
X0140022Y0067126D01*
X0140022Y0068305D02*
X0154844Y0068305D01*
X0153664Y0069485D02*
X0140022Y0069485D01*
X0140022Y0070665D02*
X0152485Y0070665D01*
X0151305Y0071844D02*
X0140022Y0071844D01*
X0140022Y0073024D02*
X0150125Y0073024D01*
X0148946Y0074204D02*
X0140022Y0074204D01*
X0140022Y0075383D02*
X0147766Y0075383D01*
X0146587Y0076563D02*
X0140022Y0076563D01*
X0140022Y0077742D02*
X0145407Y0077742D01*
X0144227Y0078922D02*
X0140022Y0078922D01*
X0138241Y0079413D02*
X0138241Y0030432D01*
X0135883Y0029378D02*
X0086154Y0029378D01*
X0084974Y0030558D02*
X0134971Y0030558D01*
X0133341Y0031737D02*
X0085310Y0031737D01*
X0086004Y0032917D02*
X0132988Y0032917D01*
X0133186Y0034097D02*
X0086039Y0034097D01*
X0085395Y0035276D02*
X0133788Y0035276D01*
X0133788Y0036456D02*
X0085201Y0036456D01*
X0085201Y0037635D02*
X0104678Y0037635D01*
X0103788Y0038815D02*
X0085201Y0038815D01*
X0085201Y0039995D02*
X0103450Y0039995D01*
X0106181Y0039783D02*
X0094158Y0051806D01*
X0091859Y0050611D02*
X0091587Y0050611D01*
X0090407Y0049432D02*
X0093145Y0049432D01*
X0095193Y0048252D02*
X0089228Y0048252D01*
X0088048Y0047072D02*
X0096373Y0047072D01*
X0097552Y0045893D02*
X0086868Y0045893D01*
X0085689Y0044713D02*
X0098732Y0044713D01*
X0099911Y0043534D02*
X0085201Y0043534D01*
X0085201Y0042354D02*
X0101091Y0042354D01*
X0102271Y0041174D02*
X0085201Y0041174D01*
X0080852Y0041174D02*
X0048243Y0041174D01*
X0048243Y0042354D02*
X0080852Y0042354D01*
X0080852Y0039995D02*
X0048243Y0039995D01*
X0048243Y0038815D02*
X0080852Y0038815D01*
X0080852Y0037635D02*
X0050365Y0037635D01*
X0049185Y0035330D02*
X0077683Y0035330D01*
X0085698Y0027315D01*
X0139131Y0027315D01*
X0144029Y0032213D01*
X0158278Y0032213D01*
X0156511Y0034097D02*
X0140022Y0034097D01*
X0140022Y0035276D02*
X0159169Y0035276D01*
X0159169Y0036456D02*
X0140022Y0036456D01*
X0140022Y0037635D02*
X0159169Y0037635D01*
X0159169Y0038815D02*
X0140022Y0038815D01*
X0140022Y0039995D02*
X0159169Y0039995D01*
X0162731Y0039995D02*
X0166679Y0039995D01*
X0167859Y0038815D02*
X0162731Y0038815D01*
X0164801Y0037635D02*
X0167620Y0037635D01*
X0166898Y0036456D02*
X0165949Y0036456D01*
X0166202Y0035276D02*
X0166829Y0035276D01*
X0167439Y0034097D02*
X0165904Y0034097D01*
X0166998Y0032917D02*
X0167017Y0032917D01*
X0166998Y0031737D02*
X0167017Y0031737D01*
X0166998Y0030558D02*
X0167017Y0030558D01*
X0166998Y0029378D02*
X0167017Y0029378D01*
X0166998Y0028199D02*
X0167017Y0028199D01*
X0169410Y0029096D02*
X0169508Y0028901D01*
X0169410Y0029096D02*
X0169410Y0035776D01*
X0171381Y0034097D02*
X0172527Y0034097D01*
X0172017Y0032917D02*
X0171998Y0032917D01*
X0171998Y0031737D02*
X0172017Y0031737D01*
X0171998Y0030558D02*
X0172017Y0030558D01*
X0171998Y0029378D02*
X0172017Y0029378D01*
X0171998Y0028199D02*
X0172017Y0028199D01*
X0174308Y0029096D02*
X0174508Y0028901D01*
X0174308Y0029096D02*
X0174308Y0034885D01*
X0166293Y0042900D01*
X0164368Y0041174D02*
X0162731Y0041174D01*
X0162731Y0042354D02*
X0163725Y0042354D01*
X0163762Y0043534D02*
X0162731Y0043534D01*
X0162731Y0044713D02*
X0164456Y0044713D01*
X0163139Y0045893D02*
X0169687Y0045893D01*
X0168507Y0047072D02*
X0163531Y0047072D01*
X0163371Y0048252D02*
X0168074Y0048252D01*
X0168074Y0049432D02*
X0162521Y0049432D01*
X0159378Y0049432D02*
X0140022Y0049432D01*
X0140022Y0050611D02*
X0168074Y0050611D01*
X0168074Y0051791D02*
X0140022Y0051791D01*
X0140022Y0052970D02*
X0168074Y0052970D01*
X0171636Y0052970D02*
X0188880Y0052970D01*
X0190060Y0051791D02*
X0171636Y0051791D01*
X0171636Y0050611D02*
X0191240Y0050611D01*
X0192419Y0049432D02*
X0171636Y0049432D01*
X0172365Y0048252D02*
X0193599Y0048252D01*
X0194778Y0047072D02*
X0173545Y0047072D01*
X0174724Y0045893D02*
X0195958Y0045893D01*
X0197138Y0044713D02*
X0175904Y0044713D01*
X0177084Y0043534D02*
X0198317Y0043534D01*
X0199497Y0042354D02*
X0178263Y0042354D01*
X0180442Y0041174D02*
X0200677Y0041174D01*
X0204535Y0042354D02*
X0212602Y0042354D01*
X0212602Y0043534D02*
X0203355Y0043534D01*
X0202175Y0044713D02*
X0212602Y0044713D01*
X0212602Y0045724D02*
X0212602Y0038200D01*
X0212224Y0038357D01*
X0211649Y0038357D01*
X0210222Y0039783D01*
X0207105Y0039783D01*
X0190370Y0056518D01*
X0190909Y0056742D01*
X0191635Y0057468D01*
X0192028Y0058416D01*
X0192028Y0059443D01*
X0191635Y0060392D01*
X0191622Y0060405D01*
X0191622Y0063631D01*
X0191998Y0064008D01*
X0191998Y0072994D01*
X0191301Y0073691D01*
X0190229Y0073691D01*
X0178225Y0085696D01*
X0178225Y0085715D01*
X0177832Y0086663D01*
X0177106Y0087389D01*
X0176157Y0087782D01*
X0175130Y0087782D01*
X0174182Y0087389D01*
X0173456Y0086663D01*
X0173063Y0085715D01*
X0173063Y0084688D01*
X0173187Y0084389D01*
X0160285Y0097290D01*
X0160285Y0100499D01*
X0159107Y0101676D01*
X0162783Y0101676D01*
X0161605Y0100499D01*
X0161605Y0096903D01*
X0164147Y0094361D01*
X0167743Y0094361D01*
X0167858Y0094476D01*
X0170008Y0092326D01*
X0175351Y0092326D01*
X0193985Y0073691D01*
X0192715Y0073691D01*
X0192017Y0072994D01*
X0192017Y0064008D01*
X0192715Y0063310D01*
X0193009Y0063310D01*
X0193009Y0062135D01*
X0192602Y0061728D01*
X0192209Y0060779D01*
X0192209Y0059752D01*
X0192602Y0058804D01*
X0193328Y0058078D01*
X0194277Y0057685D01*
X0195304Y0057685D01*
X0196253Y0058078D01*
X0196979Y0058804D01*
X0197372Y0059752D01*
X0197372Y0060779D01*
X0197248Y0061078D01*
X0212602Y0045724D01*
X0212433Y0045893D02*
X0200996Y0045893D01*
X0199816Y0047072D02*
X0211254Y0047072D01*
X0210074Y0048252D02*
X0198637Y0048252D01*
X0197457Y0049432D02*
X0208894Y0049432D01*
X0207715Y0050611D02*
X0196277Y0050611D01*
X0195098Y0051791D02*
X0206535Y0051791D01*
X0205356Y0052970D02*
X0193918Y0052970D01*
X0192738Y0054150D02*
X0204176Y0054150D01*
X0202996Y0055330D02*
X0191559Y0055330D01*
X0190379Y0056509D02*
X0201817Y0056509D01*
X0200637Y0057689D02*
X0195314Y0057689D01*
X0194267Y0057689D02*
X0191727Y0057689D01*
X0192028Y0058869D02*
X0192576Y0058869D01*
X0192209Y0060048D02*
X0191778Y0060048D01*
X0191622Y0061228D02*
X0192395Y0061228D01*
X0193009Y0062407D02*
X0191622Y0062407D01*
X0191622Y0063587D02*
X0192438Y0063587D01*
X0192017Y0064767D02*
X0191998Y0064767D01*
X0191998Y0065946D02*
X0192017Y0065946D01*
X0191998Y0067126D02*
X0192017Y0067126D01*
X0191998Y0068305D02*
X0192017Y0068305D01*
X0191998Y0069485D02*
X0192017Y0069485D01*
X0191998Y0070665D02*
X0192017Y0070665D01*
X0191998Y0071844D02*
X0192017Y0071844D01*
X0192047Y0073024D02*
X0191968Y0073024D01*
X0193473Y0074204D02*
X0189717Y0074204D01*
X0188537Y0075383D02*
X0192294Y0075383D01*
X0191114Y0076563D02*
X0187358Y0076563D01*
X0186178Y0077742D02*
X0189934Y0077742D01*
X0188755Y0078922D02*
X0184999Y0078922D01*
X0183819Y0080102D02*
X0187575Y0080102D01*
X0186396Y0081281D02*
X0182639Y0081281D01*
X0181460Y0082461D02*
X0185216Y0082461D01*
X0184036Y0083640D02*
X0180280Y0083640D01*
X0179100Y0084820D02*
X0182857Y0084820D01*
X0181677Y0086000D02*
X0178107Y0086000D01*
X0177316Y0087179D02*
X0180498Y0087179D01*
X0179318Y0088359D02*
X0169216Y0088359D01*
X0168037Y0089538D02*
X0178138Y0089538D01*
X0176959Y0090718D02*
X0166857Y0090718D01*
X0165677Y0091898D02*
X0175779Y0091898D01*
X0176089Y0094107D02*
X0170746Y0094107D01*
X0169256Y0093077D02*
X0164498Y0093077D01*
X0163318Y0094257D02*
X0168077Y0094257D01*
X0163071Y0095437D02*
X0162139Y0095437D01*
X0161892Y0096616D02*
X0160959Y0096616D01*
X0161605Y0097796D02*
X0160285Y0097796D01*
X0160285Y0098975D02*
X0161605Y0098975D01*
X0161605Y0100155D02*
X0160285Y0100155D01*
X0159449Y0101335D02*
X0162441Y0101335D01*
X0156052Y0099005D02*
X0155945Y0098701D01*
X0156052Y0099005D02*
X0184104Y0070952D01*
X0184104Y0068726D01*
X0184508Y0068501D01*
X0182017Y0068305D02*
X0181998Y0068305D01*
X0181998Y0067126D02*
X0182017Y0067126D01*
X0179651Y0068281D02*
X0179508Y0068501D01*
X0179651Y0068281D02*
X0179651Y0064719D01*
X0206368Y0038002D01*
X0209485Y0038002D01*
X0211711Y0035776D01*
X0209485Y0033994D02*
X0208149Y0035330D01*
X0209485Y0033994D02*
X0209485Y0029096D01*
X0209508Y0028901D01*
X0211998Y0029378D02*
X0212017Y0029378D01*
X0211998Y0028199D02*
X0212017Y0028199D01*
X0214383Y0029096D02*
X0214508Y0028901D01*
X0214383Y0029096D02*
X0214383Y0046462D01*
X0197017Y0063828D01*
X0197017Y0073179D01*
X0176089Y0094107D01*
X0178048Y0094666D02*
X0178761Y0095379D01*
X0178761Y0093954D01*
X0178048Y0094666D01*
X0178458Y0094257D02*
X0178761Y0094257D01*
X0183488Y0091898D02*
X0184097Y0091898D01*
X0187221Y0087873D02*
X0204141Y0070952D01*
X0204141Y0068726D01*
X0204508Y0068501D01*
X0206998Y0068305D02*
X0207017Y0068305D01*
X0206998Y0067126D02*
X0207017Y0067126D01*
X0206998Y0065946D02*
X0207017Y0065946D01*
X0206998Y0064767D02*
X0207017Y0064767D01*
X0207017Y0064008D02*
X0207715Y0063310D01*
X0211301Y0063310D01*
X0211998Y0064008D01*
X0211998Y0070818D01*
X0212017Y0070799D01*
X0212017Y0064008D01*
X0212715Y0063310D01*
X0216301Y0063310D01*
X0216998Y0064008D01*
X0216998Y0070716D01*
X0217017Y0070697D01*
X0217017Y0064008D01*
X0217715Y0063310D01*
X0220617Y0063310D01*
X0220617Y0034091D01*
X0219519Y0034091D01*
X0219635Y0034372D01*
X0219635Y0035398D01*
X0219242Y0036347D01*
X0218516Y0037073D01*
X0217568Y0037466D01*
X0216541Y0037466D01*
X0216164Y0037310D01*
X0216164Y0047200D01*
X0200053Y0063310D01*
X0201301Y0063310D01*
X0201998Y0064008D01*
X0201998Y0070576D01*
X0202017Y0070558D01*
X0202017Y0064008D01*
X0202715Y0063310D01*
X0206301Y0063310D01*
X0206998Y0064008D01*
X0206998Y0072994D01*
X0206301Y0073691D01*
X0203921Y0073691D01*
X0203098Y0074515D01*
X0208302Y0074515D01*
X0209125Y0073691D01*
X0207715Y0073691D01*
X0207017Y0072994D01*
X0207017Y0064008D01*
X0207438Y0063587D02*
X0206578Y0063587D01*
X0202438Y0063587D02*
X0201578Y0063587D01*
X0201998Y0064767D02*
X0202017Y0064767D01*
X0201998Y0065946D02*
X0202017Y0065946D01*
X0201998Y0067126D02*
X0202017Y0067126D01*
X0201998Y0068305D02*
X0202017Y0068305D01*
X0201998Y0069485D02*
X0202017Y0069485D01*
X0206998Y0069485D02*
X0207017Y0069485D01*
X0206998Y0070665D02*
X0207017Y0070665D01*
X0206998Y0071844D02*
X0207017Y0071844D01*
X0207047Y0073024D02*
X0206968Y0073024D01*
X0208613Y0074204D02*
X0203409Y0074204D01*
X0202806Y0076296D02*
X0191228Y0087873D01*
X0200117Y0090718D02*
X0209883Y0090718D01*
X0210157Y0090605D02*
X0211654Y0090605D01*
X0213038Y0091178D01*
X0214098Y0092237D01*
X0214671Y0093621D01*
X0214671Y0095119D01*
X0214098Y0096503D01*
X0213038Y0097562D01*
X0211654Y0098135D01*
X0210157Y0098135D01*
X0208773Y0097562D01*
X0207713Y0096503D01*
X0207140Y0095119D01*
X0207140Y0093621D01*
X0207713Y0092237D01*
X0208773Y0091178D01*
X0210157Y0090605D01*
X0211928Y0090718D02*
X0285709Y0090718D01*
X0285709Y0091898D02*
X0213758Y0091898D01*
X0214446Y0093077D02*
X0285709Y0093077D01*
X0285709Y0094257D02*
X0214671Y0094257D01*
X0214539Y0095437D02*
X0285709Y0095437D01*
X0285709Y0096616D02*
X0213984Y0096616D01*
X0212474Y0097796D02*
X0285709Y0097796D01*
X0285709Y0084820D02*
X0211951Y0084820D01*
X0213130Y0083640D02*
X0285709Y0083640D01*
X0285709Y0082461D02*
X0214310Y0082461D01*
X0215490Y0081281D02*
X0285709Y0081281D01*
X0285709Y0080102D02*
X0216669Y0080102D01*
X0217849Y0078922D02*
X0285709Y0078922D01*
X0285709Y0077742D02*
X0219028Y0077742D01*
X0222177Y0076563D02*
X0285709Y0076563D01*
X0285709Y0075383D02*
X0223356Y0075383D01*
X0224179Y0074204D02*
X0285709Y0074204D01*
X0285709Y0073024D02*
X0224179Y0073024D01*
X0224179Y0071844D02*
X0285709Y0071844D01*
X0285709Y0070665D02*
X0224179Y0070665D01*
X0224179Y0069485D02*
X0253232Y0069485D01*
X0253429Y0069567D02*
X0251982Y0068968D01*
X0250875Y0067860D01*
X0250276Y0066413D01*
X0250276Y0064847D01*
X0250875Y0063400D01*
X0251982Y0062292D01*
X0253429Y0061693D01*
X0254996Y0061693D01*
X0256443Y0062292D01*
X0257550Y0063400D01*
X0258150Y0064847D01*
X0258150Y0066413D01*
X0257550Y0067860D01*
X0256443Y0068968D01*
X0254996Y0069567D01*
X0253429Y0069567D01*
X0255193Y0069485D02*
X0285709Y0069485D01*
X0285709Y0068305D02*
X0257105Y0068305D01*
X0257854Y0067126D02*
X0285709Y0067126D01*
X0285709Y0065946D02*
X0258150Y0065946D01*
X0258116Y0064767D02*
X0285709Y0064767D01*
X0285709Y0063587D02*
X0257628Y0063587D01*
X0256558Y0062407D02*
X0285709Y0062407D01*
X0285709Y0061228D02*
X0224179Y0061228D01*
X0224179Y0062407D02*
X0251867Y0062407D01*
X0250797Y0063587D02*
X0224179Y0063587D01*
X0224179Y0064767D02*
X0250309Y0064767D01*
X0250276Y0065946D02*
X0224179Y0065946D01*
X0224179Y0067126D02*
X0250571Y0067126D01*
X0251320Y0068305D02*
X0224179Y0068305D01*
X0219508Y0068501D02*
X0219281Y0068726D01*
X0219281Y0070952D01*
X0211266Y0078967D01*
X0204587Y0078967D01*
X0202045Y0079575D02*
X0200055Y0081565D01*
X0210168Y0081565D01*
X0210985Y0080748D01*
X0206456Y0080748D01*
X0206049Y0081155D01*
X0205100Y0081548D01*
X0204073Y0081548D01*
X0203125Y0081155D01*
X0202398Y0080429D01*
X0202045Y0079575D01*
X0202263Y0080102D02*
X0201518Y0080102D01*
X0200339Y0081281D02*
X0203428Y0081281D01*
X0205745Y0081281D02*
X0210452Y0081281D01*
X0210906Y0083346D02*
X0218780Y0075472D01*
X0220748Y0075472D01*
X0222398Y0073823D01*
X0222398Y0024644D01*
X0221062Y0023308D01*
X0202806Y0023308D01*
X0199689Y0026425D01*
X0199689Y0028651D01*
X0199508Y0028901D01*
X0197017Y0029378D02*
X0196998Y0029378D01*
X0196998Y0028199D02*
X0197017Y0028199D01*
X0194508Y0028901D02*
X0194345Y0028651D01*
X0194345Y0021081D01*
X0182323Y0009059D01*
X0184738Y0008145D02*
X0285709Y0008145D01*
X0285709Y0006966D02*
X0183880Y0006966D01*
X0181576Y0006575D02*
X0178350Y0006575D01*
X0179911Y0008136D01*
X0180135Y0007597D01*
X0180861Y0006871D01*
X0181576Y0006575D01*
X0180766Y0006966D02*
X0178741Y0006966D01*
X0175644Y0006387D02*
X0152489Y0006387D01*
X0146256Y0012621D01*
X0145945Y0012874D01*
X0141605Y0012864D02*
X0140285Y0012864D01*
X0140285Y0014043D02*
X0141605Y0014043D01*
X0142156Y0015223D02*
X0140689Y0015223D01*
X0140467Y0017519D02*
X0136014Y0013067D01*
X0135945Y0012874D01*
X0140285Y0011684D02*
X0141605Y0011684D01*
X0142177Y0010504D02*
X0139713Y0010504D01*
X0138534Y0009325D02*
X0143356Y0009325D01*
X0150708Y0011731D02*
X0150708Y0014402D01*
X0147591Y0017519D01*
X0140467Y0017519D01*
X0139190Y0018762D02*
X0128198Y0018762D01*
X0127019Y0017582D02*
X0138011Y0017582D01*
X0133335Y0016402D02*
X0128554Y0016402D01*
X0129734Y0015223D02*
X0132156Y0015223D01*
X0131605Y0014043D02*
X0130285Y0014043D01*
X0130285Y0012864D02*
X0131605Y0012864D01*
X0131605Y0011684D02*
X0130285Y0011684D01*
X0129713Y0010504D02*
X0132177Y0010504D01*
X0133356Y0009325D02*
X0128534Y0009325D01*
X0123356Y0009325D02*
X0120285Y0009325D01*
X0120285Y0010504D02*
X0122177Y0010504D01*
X0121605Y0011684D02*
X0121121Y0011684D01*
X0120801Y0016402D02*
X0120285Y0016402D01*
X0142788Y0019941D02*
X0157833Y0019941D01*
X0157833Y0018762D02*
X0148868Y0018762D01*
X0150047Y0017582D02*
X0157215Y0017582D01*
X0159614Y0016629D02*
X0159614Y0023308D01*
X0160950Y0024644D01*
X0160950Y0047353D01*
X0158528Y0048252D02*
X0140022Y0048252D01*
X0140022Y0047072D02*
X0158369Y0047072D01*
X0158761Y0045893D02*
X0140022Y0045893D01*
X0140022Y0044713D02*
X0159169Y0044713D01*
X0159169Y0043534D02*
X0140022Y0043534D01*
X0140022Y0042354D02*
X0159169Y0042354D01*
X0159169Y0041174D02*
X0140022Y0041174D01*
X0133788Y0041174D02*
X0108398Y0041174D01*
X0107949Y0042354D02*
X0133788Y0042354D01*
X0133788Y0043534D02*
X0108684Y0043534D01*
X0108762Y0044713D02*
X0133788Y0044713D01*
X0133788Y0045893D02*
X0108174Y0045893D01*
X0106420Y0047072D02*
X0133788Y0047072D01*
X0133041Y0048252D02*
X0105240Y0048252D01*
X0104061Y0049432D02*
X0131862Y0049432D01*
X0130682Y0050611D02*
X0102881Y0050611D01*
X0101701Y0051791D02*
X0129502Y0051791D01*
X0128323Y0052970D02*
X0100522Y0052970D01*
X0099342Y0054150D02*
X0127143Y0054150D01*
X0125964Y0055330D02*
X0098162Y0055330D01*
X0097485Y0056509D02*
X0124784Y0056509D01*
X0123604Y0057689D02*
X0098665Y0057689D01*
X0099844Y0058869D02*
X0122425Y0058869D01*
X0121245Y0060048D02*
X0101024Y0060048D01*
X0102203Y0061228D02*
X0120066Y0061228D01*
X0118886Y0062407D02*
X0103383Y0062407D01*
X0105453Y0063587D02*
X0117706Y0063587D01*
X0116527Y0064767D02*
X0106633Y0064767D01*
X0107812Y0065946D02*
X0115347Y0065946D01*
X0114168Y0067126D02*
X0108355Y0067126D01*
X0108355Y0068305D02*
X0112988Y0068305D01*
X0111808Y0069485D02*
X0108355Y0069485D01*
X0108355Y0070665D02*
X0110629Y0070665D01*
X0109449Y0071844D02*
X0107474Y0071844D01*
X0108269Y0073024D02*
X0106294Y0073024D01*
X0107090Y0074204D02*
X0105115Y0074204D01*
X0105910Y0075383D02*
X0103935Y0075383D01*
X0104731Y0076563D02*
X0102755Y0076563D01*
X0103551Y0077742D02*
X0101576Y0077742D01*
X0102371Y0078922D02*
X0100396Y0078922D01*
X0101192Y0080102D02*
X0099217Y0080102D01*
X0107409Y0078922D02*
X0136212Y0078922D01*
X0136459Y0077742D02*
X0108589Y0077742D01*
X0109768Y0076563D02*
X0136459Y0076563D01*
X0136459Y0075383D02*
X0110948Y0075383D01*
X0112128Y0074204D02*
X0136459Y0074204D01*
X0136459Y0073024D02*
X0113307Y0073024D01*
X0114487Y0071844D02*
X0136459Y0071844D01*
X0136459Y0070665D02*
X0115666Y0070665D01*
X0116846Y0069485D02*
X0136459Y0069485D01*
X0136459Y0068305D02*
X0118026Y0068305D01*
X0119205Y0067126D02*
X0136459Y0067126D01*
X0136459Y0065946D02*
X0120385Y0065946D01*
X0121564Y0064767D02*
X0136459Y0064767D01*
X0136459Y0063587D02*
X0122744Y0063587D01*
X0123924Y0062407D02*
X0136459Y0062407D01*
X0136459Y0061228D02*
X0125103Y0061228D01*
X0126283Y0060048D02*
X0136459Y0060048D01*
X0136459Y0058869D02*
X0127463Y0058869D01*
X0128642Y0057689D02*
X0136459Y0057689D01*
X0136459Y0056509D02*
X0129822Y0056509D01*
X0131001Y0055330D02*
X0136459Y0055330D01*
X0136459Y0054150D02*
X0132181Y0054150D01*
X0133361Y0052970D02*
X0136459Y0052970D01*
X0136459Y0051791D02*
X0134540Y0051791D01*
X0135720Y0050611D02*
X0136459Y0050611D01*
X0135569Y0048243D02*
X0095494Y0088318D01*
X0094543Y0090718D02*
X0086229Y0090718D01*
X0086215Y0093077D02*
X0122057Y0093077D01*
X0120877Y0094257D02*
X0084924Y0094257D01*
X0082910Y0094257D02*
X0006181Y0094257D01*
X0006181Y0095437D02*
X0113071Y0095437D01*
X0111892Y0096616D02*
X0006181Y0096616D01*
X0006181Y0097796D02*
X0111605Y0097796D01*
X0111605Y0098975D02*
X0006181Y0098975D01*
X0006181Y0100155D02*
X0111605Y0100155D01*
X0112441Y0101335D02*
X0006181Y0101335D01*
X0006181Y0102514D02*
X0113620Y0102514D01*
X0118269Y0102514D02*
X0120975Y0102514D01*
X0119795Y0101335D02*
X0119449Y0101335D01*
X0122155Y0103694D02*
X0006181Y0103694D01*
X0006181Y0104873D02*
X0123334Y0104873D01*
X0125945Y0098701D02*
X0126218Y0098559D01*
X0126218Y0096778D01*
X0139576Y0083420D01*
X0139576Y0082084D01*
X0137165Y0083007D02*
X0125811Y0094361D01*
X0126117Y0094361D01*
X0137254Y0083223D01*
X0137165Y0083007D01*
X0136837Y0083640D02*
X0136532Y0083640D01*
X0135658Y0084820D02*
X0135352Y0084820D01*
X0134478Y0086000D02*
X0134172Y0086000D01*
X0133298Y0087179D02*
X0132993Y0087179D01*
X0132119Y0088359D02*
X0131813Y0088359D01*
X0130939Y0089538D02*
X0130633Y0089538D01*
X0129759Y0090718D02*
X0129454Y0090718D01*
X0128580Y0091898D02*
X0128274Y0091898D01*
X0127400Y0093077D02*
X0127095Y0093077D01*
X0126221Y0094257D02*
X0125915Y0094257D01*
X0119698Y0095437D02*
X0118819Y0095437D01*
X0133618Y0091898D02*
X0134233Y0091898D01*
X0137795Y0091898D02*
X0160640Y0091898D01*
X0161819Y0090718D02*
X0137795Y0090718D01*
X0138648Y0089538D02*
X0162999Y0089538D01*
X0164179Y0088359D02*
X0139828Y0088359D01*
X0141008Y0087179D02*
X0165358Y0087179D01*
X0166538Y0086000D02*
X0142187Y0086000D01*
X0143367Y0084820D02*
X0167717Y0084820D01*
X0168897Y0083640D02*
X0144547Y0083640D01*
X0145726Y0082461D02*
X0170077Y0082461D01*
X0171256Y0081281D02*
X0146906Y0081281D01*
X0148085Y0080102D02*
X0172436Y0080102D01*
X0173615Y0078922D02*
X0149265Y0078922D01*
X0150445Y0077742D02*
X0174795Y0077742D01*
X0175975Y0076563D02*
X0151624Y0076563D01*
X0152804Y0075383D02*
X0177154Y0075383D01*
X0178334Y0074204D02*
X0153983Y0074204D01*
X0155163Y0073024D02*
X0162047Y0073024D01*
X0162017Y0071844D02*
X0156343Y0071844D01*
X0157522Y0070665D02*
X0162017Y0070665D01*
X0162017Y0069485D02*
X0158702Y0069485D01*
X0159882Y0068305D02*
X0162017Y0068305D01*
X0162017Y0067126D02*
X0161061Y0067126D01*
X0166998Y0067126D02*
X0167017Y0067126D01*
X0166998Y0068305D02*
X0167017Y0068305D01*
X0166998Y0069485D02*
X0167017Y0069485D01*
X0166998Y0070665D02*
X0167017Y0070665D01*
X0166998Y0071844D02*
X0167017Y0071844D01*
X0167047Y0073024D02*
X0166968Y0073024D01*
X0171968Y0073024D02*
X0172047Y0073024D01*
X0172017Y0072994D02*
X0172017Y0064008D01*
X0172715Y0063310D01*
X0176301Y0063310D01*
X0176998Y0064008D01*
X0176998Y0072994D01*
X0176301Y0073691D01*
X0172715Y0073691D01*
X0172017Y0072994D01*
X0171998Y0071844D02*
X0172017Y0071844D01*
X0171998Y0070665D02*
X0172017Y0070665D01*
X0171998Y0069485D02*
X0172017Y0069485D01*
X0171998Y0068305D02*
X0172017Y0068305D01*
X0171998Y0067126D02*
X0172017Y0067126D01*
X0169855Y0068281D02*
X0169508Y0068501D01*
X0169855Y0068281D02*
X0169855Y0048243D01*
X0179206Y0038893D01*
X0181787Y0038815D02*
X0203036Y0038815D01*
X0204215Y0037635D02*
X0181479Y0037635D01*
X0180068Y0036456D02*
X0205395Y0036456D01*
X0205568Y0035276D02*
X0176089Y0035276D01*
X0176089Y0034097D02*
X0177154Y0034097D01*
X0179448Y0034097D02*
X0179567Y0034097D01*
X0179567Y0032917D02*
X0179448Y0032917D01*
X0179448Y0031737D02*
X0179567Y0031737D01*
X0179567Y0030558D02*
X0179448Y0030558D01*
X0179448Y0029378D02*
X0179567Y0029378D01*
X0184104Y0028651D02*
X0184508Y0028901D01*
X0184104Y0028651D02*
X0184104Y0026425D01*
X0175198Y0017519D01*
X0174308Y0017519D01*
X0170300Y0013512D01*
X0170300Y0010840D01*
X0167629Y0008169D01*
X0154270Y0008169D01*
X0150708Y0011731D01*
X0159158Y0009950D02*
X0160285Y0011076D01*
X0160285Y0014113D01*
X0161076Y0014441D01*
X0161802Y0015167D01*
X0161847Y0015276D01*
X0162103Y0015170D01*
X0161605Y0014672D01*
X0161605Y0011076D01*
X0162731Y0009950D01*
X0159158Y0009950D01*
X0159713Y0010504D02*
X0162177Y0010504D01*
X0161605Y0011684D02*
X0160285Y0011684D01*
X0160285Y0012864D02*
X0161605Y0012864D01*
X0161605Y0014043D02*
X0160285Y0014043D01*
X0161825Y0015223D02*
X0161975Y0015223D01*
X0163176Y0017519D02*
X0163176Y0022863D01*
X0165714Y0023480D02*
X0173551Y0023480D01*
X0173008Y0022301D02*
X0165737Y0022301D01*
X0165084Y0021121D02*
X0171828Y0021121D01*
X0170649Y0019941D02*
X0164957Y0019941D01*
X0165455Y0018762D02*
X0169469Y0018762D01*
X0168290Y0017582D02*
X0165757Y0017582D01*
X0161395Y0019388D02*
X0161395Y0020993D01*
X0161395Y0020993D01*
X0161395Y0019388D01*
X0161395Y0019388D01*
X0161395Y0019941D02*
X0161395Y0019941D01*
X0153335Y0016402D02*
X0151227Y0016402D01*
X0165945Y0012874D02*
X0166293Y0013067D01*
X0176089Y0022863D01*
X0172017Y0024660D02*
X0171998Y0024660D01*
X0171998Y0025839D02*
X0172017Y0025839D01*
X0171998Y0027019D02*
X0172017Y0027019D01*
X0167017Y0027019D02*
X0166998Y0027019D01*
X0166998Y0025839D02*
X0167017Y0025839D01*
X0166998Y0024660D02*
X0167017Y0024660D01*
X0164508Y0028901D02*
X0164067Y0029096D01*
X0163621Y0029542D01*
X0163621Y0035330D01*
X0172897Y0038815D02*
X0176625Y0038815D01*
X0176933Y0037635D02*
X0174076Y0037635D01*
X0175256Y0036456D02*
X0178344Y0036456D01*
X0181861Y0034097D02*
X0202154Y0034097D01*
X0204448Y0034097D02*
X0204567Y0034097D01*
X0204567Y0032917D02*
X0204448Y0032917D01*
X0204448Y0031737D02*
X0204567Y0031737D01*
X0204567Y0030558D02*
X0204448Y0030558D01*
X0204448Y0029378D02*
X0204567Y0029378D01*
X0197017Y0030558D02*
X0196998Y0030558D01*
X0196998Y0031737D02*
X0197017Y0031737D01*
X0196998Y0032917D02*
X0197017Y0032917D01*
X0192017Y0032917D02*
X0191998Y0032917D01*
X0191998Y0031737D02*
X0192017Y0031737D01*
X0191998Y0030558D02*
X0192017Y0030558D01*
X0191998Y0029378D02*
X0192017Y0029378D01*
X0191998Y0028199D02*
X0192017Y0028199D01*
X0189508Y0028901D02*
X0189447Y0028651D01*
X0189447Y0020191D01*
X0175644Y0006387D01*
X0174906Y0008168D02*
X0170148Y0008168D01*
X0172081Y0010102D01*
X0172081Y0010600D01*
X0174147Y0008534D01*
X0175271Y0008534D01*
X0174906Y0008168D01*
X0173356Y0009325D02*
X0171304Y0009325D01*
X0172081Y0010504D02*
X0172177Y0010504D01*
X0180285Y0014043D02*
X0180781Y0014043D01*
X0179734Y0015223D02*
X0181960Y0015223D01*
X0183140Y0016402D02*
X0178554Y0016402D01*
X0177780Y0017582D02*
X0184320Y0017582D01*
X0185499Y0018762D02*
X0178960Y0018762D01*
X0180139Y0019941D02*
X0186679Y0019941D01*
X0187666Y0021121D02*
X0181319Y0021121D01*
X0182498Y0022301D02*
X0187666Y0022301D01*
X0187666Y0023480D02*
X0183678Y0023480D01*
X0186998Y0024660D02*
X0187017Y0024660D01*
X0186998Y0025839D02*
X0187017Y0025839D01*
X0186998Y0027019D02*
X0187017Y0027019D01*
X0186998Y0028199D02*
X0187017Y0028199D01*
X0186998Y0029378D02*
X0187017Y0029378D01*
X0186998Y0030558D02*
X0187017Y0030558D01*
X0186998Y0031737D02*
X0187017Y0031737D01*
X0186998Y0032917D02*
X0187017Y0032917D01*
X0191998Y0027019D02*
X0192017Y0027019D01*
X0191998Y0025839D02*
X0192017Y0025839D01*
X0191998Y0024660D02*
X0192017Y0024660D01*
X0192564Y0023480D02*
X0191228Y0023480D01*
X0191228Y0022301D02*
X0192564Y0022301D01*
X0191866Y0021121D02*
X0191228Y0021121D01*
X0195724Y0019941D02*
X0285709Y0019941D01*
X0285709Y0018762D02*
X0194544Y0018762D01*
X0193365Y0017582D02*
X0285709Y0017582D01*
X0285709Y0016402D02*
X0192185Y0016402D01*
X0191005Y0015223D02*
X0285709Y0015223D01*
X0285709Y0014043D02*
X0189826Y0014043D01*
X0188646Y0012864D02*
X0285709Y0012864D01*
X0285709Y0011684D02*
X0187467Y0011684D01*
X0186287Y0010504D02*
X0285709Y0010504D01*
X0285709Y0009325D02*
X0185107Y0009325D01*
X0196126Y0021121D02*
X0285709Y0021121D01*
X0285709Y0022301D02*
X0222573Y0022301D01*
X0223753Y0023480D02*
X0285709Y0023480D01*
X0285709Y0024660D02*
X0224179Y0024660D01*
X0224179Y0025839D02*
X0285709Y0025839D01*
X0285709Y0027019D02*
X0224179Y0027019D01*
X0224179Y0028199D02*
X0285709Y0028199D01*
X0285709Y0029378D02*
X0224179Y0029378D01*
X0224179Y0030558D02*
X0285709Y0030558D01*
X0285709Y0031737D02*
X0224179Y0031737D01*
X0224179Y0032917D02*
X0251830Y0032917D01*
X0251982Y0032765D02*
X0253429Y0032165D01*
X0254996Y0032165D01*
X0256443Y0032765D01*
X0257550Y0033872D01*
X0258150Y0035319D01*
X0258150Y0036885D01*
X0257550Y0038332D01*
X0256443Y0039440D01*
X0254996Y0040039D01*
X0253429Y0040039D01*
X0251982Y0039440D01*
X0250875Y0038332D01*
X0250276Y0036885D01*
X0250276Y0035319D01*
X0250875Y0033872D01*
X0251982Y0032765D01*
X0250782Y0034097D02*
X0224179Y0034097D01*
X0224179Y0035276D02*
X0250293Y0035276D01*
X0250276Y0036456D02*
X0224179Y0036456D01*
X0224179Y0037635D02*
X0250586Y0037635D01*
X0251358Y0038815D02*
X0224179Y0038815D01*
X0224179Y0039995D02*
X0253322Y0039995D01*
X0255104Y0039995D02*
X0285709Y0039995D01*
X0285709Y0038815D02*
X0257068Y0038815D01*
X0257839Y0037635D02*
X0285709Y0037635D01*
X0285709Y0036456D02*
X0258150Y0036456D01*
X0258132Y0035276D02*
X0285709Y0035276D01*
X0285709Y0034097D02*
X0257643Y0034097D01*
X0256595Y0032917D02*
X0285709Y0032917D01*
X0285709Y0041174D02*
X0224179Y0041174D01*
X0224179Y0042354D02*
X0285709Y0042354D01*
X0285709Y0043534D02*
X0224179Y0043534D01*
X0224179Y0044713D02*
X0285709Y0044713D01*
X0285709Y0045893D02*
X0224179Y0045893D01*
X0224179Y0047072D02*
X0285709Y0047072D01*
X0285709Y0048252D02*
X0224179Y0048252D01*
X0224179Y0049432D02*
X0285709Y0049432D01*
X0285709Y0050611D02*
X0224179Y0050611D01*
X0224179Y0051791D02*
X0285709Y0051791D01*
X0285709Y0052970D02*
X0224179Y0052970D01*
X0220617Y0052970D02*
X0210393Y0052970D01*
X0211573Y0051791D02*
X0220617Y0051791D01*
X0220617Y0050611D02*
X0212752Y0050611D01*
X0213932Y0049432D02*
X0220617Y0049432D01*
X0220617Y0048252D02*
X0215112Y0048252D01*
X0216164Y0047072D02*
X0220617Y0047072D01*
X0220617Y0045893D02*
X0216164Y0045893D01*
X0216164Y0044713D02*
X0220617Y0044713D01*
X0220617Y0043534D02*
X0216164Y0043534D01*
X0216164Y0042354D02*
X0220617Y0042354D01*
X0220617Y0041174D02*
X0216164Y0041174D01*
X0212602Y0041174D02*
X0205714Y0041174D01*
X0206894Y0039995D02*
X0212602Y0039995D01*
X0212602Y0038815D02*
X0211190Y0038815D01*
X0216164Y0038815D02*
X0220617Y0038815D01*
X0220617Y0037635D02*
X0216164Y0037635D01*
X0219134Y0036456D02*
X0220617Y0036456D01*
X0220617Y0035276D02*
X0219635Y0035276D01*
X0219522Y0034097D02*
X0220617Y0034097D01*
X0217054Y0034885D02*
X0217054Y0031323D01*
X0219281Y0029096D01*
X0219508Y0028901D01*
X0217017Y0028841D02*
X0217017Y0025089D01*
X0216998Y0025089D01*
X0216998Y0028860D01*
X0217017Y0028841D01*
X0216998Y0028199D02*
X0217017Y0028199D01*
X0216998Y0027019D02*
X0217017Y0027019D01*
X0216998Y0025839D02*
X0217017Y0025839D01*
X0212017Y0025839D02*
X0211998Y0025839D01*
X0211998Y0025089D02*
X0211998Y0033194D01*
X0212017Y0033194D01*
X0212017Y0025089D01*
X0211998Y0025089D01*
X0211998Y0027019D02*
X0212017Y0027019D01*
X0211998Y0030558D02*
X0212017Y0030558D01*
X0211998Y0031737D02*
X0212017Y0031737D01*
X0211998Y0032917D02*
X0212017Y0032917D01*
X0216164Y0039995D02*
X0220617Y0039995D01*
X0201856Y0039995D02*
X0181543Y0039995D01*
X0175585Y0039995D02*
X0171717Y0039995D01*
X0170537Y0041174D02*
X0174405Y0041174D01*
X0173226Y0042354D02*
X0169358Y0042354D01*
X0168824Y0043534D02*
X0172046Y0043534D01*
X0170866Y0044713D02*
X0168130Y0044713D01*
X0168074Y0054150D02*
X0140022Y0054150D01*
X0140022Y0055330D02*
X0168074Y0055330D01*
X0168074Y0056509D02*
X0140022Y0056509D01*
X0135569Y0048243D02*
X0135569Y0033104D01*
X0140022Y0032917D02*
X0142214Y0032917D01*
X0141034Y0031737D02*
X0140494Y0031737D01*
X0133788Y0037635D02*
X0107683Y0037635D01*
X0108574Y0038815D02*
X0133788Y0038815D01*
X0133788Y0039995D02*
X0108762Y0039995D01*
X0084256Y0049432D02*
X0072446Y0049432D01*
X0071266Y0050611D02*
X0085436Y0050611D01*
X0086615Y0051791D02*
X0070087Y0051791D01*
X0068907Y0052970D02*
X0087795Y0052970D01*
X0088974Y0054150D02*
X0067728Y0054150D01*
X0066548Y0055330D02*
X0090154Y0055330D01*
X0091334Y0056509D02*
X0065368Y0056509D01*
X0064189Y0057689D02*
X0092513Y0057689D01*
X0091983Y0057159D02*
X0091983Y0057159D01*
X0093257Y0058433D02*
X0093257Y0058433D01*
X0093693Y0058869D02*
X0063009Y0058869D01*
X0054633Y0064767D02*
X0020379Y0064767D01*
X0021375Y0065946D02*
X0053454Y0065946D01*
X0052274Y0067126D02*
X0021773Y0067126D01*
X0021766Y0068305D02*
X0051095Y0068305D01*
X0057200Y0068726D02*
X0060763Y0068726D01*
X0067579Y0073024D02*
X0075902Y0073024D01*
X0075902Y0074204D02*
X0068759Y0074204D01*
X0069939Y0075383D02*
X0075902Y0075383D01*
X0075547Y0076563D02*
X0071118Y0076563D01*
X0072298Y0077742D02*
X0075102Y0077742D01*
X0075239Y0078922D02*
X0073477Y0078922D01*
X0077683Y0078077D02*
X0077683Y0069171D01*
X0077683Y0068726D01*
X0103064Y0068726D01*
X0141244Y0080102D02*
X0143048Y0080102D01*
X0170396Y0087179D02*
X0173972Y0087179D01*
X0173181Y0086000D02*
X0171575Y0086000D01*
X0172755Y0084820D02*
X0173063Y0084820D01*
X0174831Y0082744D02*
X0175130Y0082620D01*
X0175149Y0082620D01*
X0184078Y0073691D01*
X0183884Y0073691D01*
X0174831Y0082744D01*
X0175114Y0082461D02*
X0175308Y0082461D01*
X0176294Y0081281D02*
X0176488Y0081281D01*
X0177474Y0080102D02*
X0177668Y0080102D01*
X0178653Y0078922D02*
X0178847Y0078922D01*
X0179833Y0077742D02*
X0180027Y0077742D01*
X0181012Y0076563D02*
X0181207Y0076563D01*
X0182192Y0075383D02*
X0182386Y0075383D01*
X0183372Y0074204D02*
X0183566Y0074204D01*
X0177047Y0073024D02*
X0176968Y0073024D01*
X0176998Y0071844D02*
X0177017Y0071844D01*
X0176998Y0070665D02*
X0177017Y0070665D01*
X0176998Y0069485D02*
X0177017Y0069485D01*
X0176998Y0068305D02*
X0177017Y0068305D01*
X0176998Y0067126D02*
X0177017Y0067126D01*
X0176998Y0065946D02*
X0177017Y0065946D01*
X0176998Y0064767D02*
X0177017Y0064767D01*
X0177438Y0063587D02*
X0176578Y0063587D01*
X0179443Y0062407D02*
X0171636Y0062407D01*
X0171636Y0061228D02*
X0180623Y0061228D01*
X0181803Y0060048D02*
X0171636Y0060048D01*
X0171636Y0058869D02*
X0182982Y0058869D01*
X0184162Y0057689D02*
X0171636Y0057689D01*
X0171636Y0056509D02*
X0185342Y0056509D01*
X0186521Y0055330D02*
X0171636Y0055330D01*
X0171636Y0054150D02*
X0187701Y0054150D01*
X0197006Y0058869D02*
X0199457Y0058869D01*
X0198278Y0060048D02*
X0197372Y0060048D01*
X0194791Y0060266D02*
X0194791Y0068281D01*
X0194508Y0068501D01*
X0187017Y0068080D02*
X0187017Y0064008D01*
X0187272Y0063753D01*
X0187272Y0060405D01*
X0187259Y0060392D01*
X0187036Y0059853D01*
X0183578Y0063310D01*
X0186301Y0063310D01*
X0186998Y0064008D01*
X0186998Y0068099D01*
X0187017Y0068080D01*
X0186998Y0067126D02*
X0187017Y0067126D01*
X0186998Y0065946D02*
X0187017Y0065946D01*
X0186998Y0064767D02*
X0187017Y0064767D01*
X0187272Y0063587D02*
X0186578Y0063587D01*
X0187272Y0062407D02*
X0184481Y0062407D01*
X0185661Y0061228D02*
X0187272Y0061228D01*
X0187117Y0060048D02*
X0186840Y0060048D01*
X0182017Y0064871D02*
X0181998Y0064890D01*
X0181998Y0070539D01*
X0182017Y0070520D01*
X0182017Y0064871D01*
X0181998Y0065946D02*
X0182017Y0065946D01*
X0181998Y0069485D02*
X0182017Y0069485D01*
X0172017Y0065946D02*
X0171998Y0065946D01*
X0171998Y0064767D02*
X0172017Y0064767D01*
X0171636Y0063587D02*
X0172438Y0063587D01*
X0168074Y0062407D02*
X0165780Y0062407D01*
X0166578Y0063587D02*
X0167438Y0063587D01*
X0167017Y0064767D02*
X0166998Y0064767D01*
X0166998Y0065946D02*
X0167017Y0065946D01*
X0198798Y0073691D02*
X0198798Y0073777D01*
X0198884Y0073691D01*
X0198798Y0073691D01*
X0202806Y0076296D02*
X0209039Y0076296D01*
X0214383Y0070952D01*
X0214383Y0068726D01*
X0214508Y0068501D01*
X0216998Y0068305D02*
X0217017Y0068305D01*
X0216998Y0067126D02*
X0217017Y0067126D01*
X0216998Y0065946D02*
X0217017Y0065946D01*
X0216998Y0064767D02*
X0217017Y0064767D01*
X0217438Y0063587D02*
X0216578Y0063587D01*
X0220617Y0062407D02*
X0200956Y0062407D01*
X0202136Y0061228D02*
X0220617Y0061228D01*
X0220617Y0060048D02*
X0203316Y0060048D01*
X0204495Y0058869D02*
X0220617Y0058869D01*
X0220617Y0057689D02*
X0205675Y0057689D01*
X0206854Y0056509D02*
X0220617Y0056509D01*
X0220617Y0055330D02*
X0208034Y0055330D01*
X0209214Y0054150D02*
X0220617Y0054150D01*
X0224179Y0054150D02*
X0285709Y0054150D01*
X0285709Y0055330D02*
X0224179Y0055330D01*
X0224179Y0056509D02*
X0285709Y0056509D01*
X0285709Y0057689D02*
X0224179Y0057689D01*
X0224179Y0058869D02*
X0285709Y0058869D01*
X0285709Y0060048D02*
X0224179Y0060048D01*
X0212438Y0063587D02*
X0211578Y0063587D01*
X0211998Y0064767D02*
X0212017Y0064767D01*
X0211998Y0065946D02*
X0212017Y0065946D01*
X0211998Y0067126D02*
X0212017Y0067126D01*
X0211998Y0068305D02*
X0212017Y0068305D01*
X0211998Y0069485D02*
X0212017Y0069485D01*
X0211998Y0070665D02*
X0212017Y0070665D01*
X0216998Y0070665D02*
X0217017Y0070665D01*
X0216998Y0069485D02*
X0217017Y0069485D01*
X0219061Y0073691D02*
X0220010Y0073691D01*
X0220010Y0073691D01*
X0219061Y0073691D01*
X0219061Y0073691D01*
X0210906Y0083346D02*
X0199094Y0083346D01*
X0201947Y0091898D02*
X0208053Y0091898D01*
X0207365Y0093077D02*
X0202635Y0093077D01*
X0202860Y0094257D02*
X0207140Y0094257D01*
X0207272Y0095437D02*
X0202728Y0095437D01*
X0202173Y0096616D02*
X0207827Y0096616D01*
X0209337Y0097796D02*
X0200663Y0097796D01*
X0159460Y0093077D02*
X0149081Y0093077D01*
X0150260Y0094257D02*
X0158280Y0094257D01*
X0153071Y0095437D02*
X0151440Y0095437D01*
X0081619Y0093077D02*
X0006181Y0093077D01*
X0015974Y0090718D02*
X0016073Y0090718D01*
X0016073Y0089538D02*
X0015974Y0089538D01*
X0015974Y0088359D02*
X0016073Y0088359D01*
X0010536Y0078922D02*
X0006181Y0078922D01*
X0006181Y0077742D02*
X0010274Y0077742D01*
X0010417Y0076563D02*
X0006181Y0076563D01*
X0006181Y0075383D02*
X0011052Y0075383D01*
X0010653Y0074204D02*
X0006181Y0074204D01*
X0006181Y0073024D02*
X0010274Y0073024D01*
X0010300Y0071844D02*
X0006181Y0071844D01*
X0006181Y0070665D02*
X0010789Y0070665D01*
X0010770Y0069485D02*
X0006181Y0069485D01*
X0006181Y0068305D02*
X0010281Y0068305D01*
X0010274Y0067126D02*
X0006181Y0067126D01*
X0006181Y0065946D02*
X0010672Y0065946D01*
X0011668Y0064767D02*
X0006181Y0064767D01*
X0006181Y0063587D02*
X0048856Y0063587D01*
X0048061Y0062407D02*
X0006181Y0062407D01*
X0006181Y0061228D02*
X0047517Y0061228D01*
X0046337Y0060048D02*
X0006181Y0060048D01*
X0006181Y0058869D02*
X0045158Y0058869D01*
X0043978Y0057689D02*
X0006181Y0057689D01*
X0006181Y0056509D02*
X0008434Y0056509D01*
X0008252Y0055330D02*
X0006181Y0055330D01*
X0006181Y0054150D02*
X0008252Y0054150D01*
X0008252Y0052970D02*
X0006181Y0052970D01*
X0006181Y0051791D02*
X0008252Y0051791D01*
X0021433Y0051791D02*
X0043894Y0051791D01*
X0043894Y0052970D02*
X0021433Y0052970D01*
X0029041Y0048252D02*
X0043894Y0048252D01*
X0043894Y0047072D02*
X0029911Y0047072D01*
X0030217Y0045893D02*
X0043894Y0045893D01*
X0043894Y0044713D02*
X0030112Y0044713D01*
X0029527Y0043534D02*
X0043894Y0043534D01*
X0048243Y0043534D02*
X0072193Y0043534D01*
X0071013Y0044713D02*
X0048243Y0044713D01*
X0048243Y0045893D02*
X0069834Y0045893D01*
X0068654Y0047072D02*
X0048243Y0047072D01*
X0048243Y0048252D02*
X0067474Y0048252D01*
X0066295Y0049432D02*
X0048243Y0049432D01*
X0048243Y0050611D02*
X0065115Y0050611D01*
X0063935Y0051791D02*
X0048243Y0051791D01*
X0048243Y0052970D02*
X0062756Y0052970D01*
X0073626Y0048252D02*
X0083076Y0048252D01*
X0080852Y0036456D02*
X0079076Y0036456D01*
X0080256Y0035276D02*
X0080852Y0035276D01*
X0077577Y0032917D02*
X0050104Y0032917D01*
X0048267Y0032917D02*
X0048243Y0032917D01*
X0048243Y0031737D02*
X0052629Y0031737D01*
X0051971Y0030558D02*
X0048243Y0030558D01*
X0048243Y0029378D02*
X0051987Y0029378D01*
X0052667Y0028199D02*
X0048243Y0028199D01*
X0043894Y0021121D02*
X0015433Y0021121D01*
X0015433Y0022301D02*
X0014252Y0022301D01*
X0014252Y0023480D02*
X0015433Y0023480D01*
X0015433Y0024660D02*
X0014252Y0024660D01*
X0014252Y0025839D02*
X0015433Y0025839D01*
X0015433Y0027019D02*
X0014252Y0027019D01*
X0008352Y0027019D02*
X0006181Y0027019D01*
X0006181Y0025839D02*
X0008252Y0025839D01*
X0008252Y0024660D02*
X0006181Y0024660D01*
X0006181Y0023480D02*
X0008252Y0023480D01*
X0008252Y0022301D02*
X0006181Y0022301D01*
X0006181Y0021121D02*
X0014252Y0021121D01*
X0014252Y0020846D02*
X0008252Y0020846D01*
X0008252Y0016228D01*
X0008360Y0015823D01*
X0008570Y0015460D01*
X0008866Y0015164D01*
X0009229Y0014955D01*
X0009633Y0014846D01*
X0014252Y0014846D01*
X0014252Y0020846D01*
X0014252Y0019941D02*
X0015433Y0019941D01*
X0015433Y0018762D02*
X0014252Y0018762D01*
X0014252Y0017582D02*
X0015433Y0017582D01*
X0015433Y0016402D02*
X0014252Y0016402D01*
X0014252Y0015223D02*
X0015433Y0015223D01*
X0008807Y0015223D02*
X0006181Y0015223D01*
X0006181Y0016402D02*
X0008252Y0016402D01*
X0008252Y0017582D02*
X0006181Y0017582D01*
X0006181Y0018762D02*
X0008252Y0018762D01*
X0008252Y0019941D02*
X0006181Y0019941D01*
X0021433Y0023480D02*
X0025193Y0023480D01*
X0023828Y0024660D02*
X0021433Y0024660D01*
X0021433Y0025839D02*
X0023339Y0025839D01*
X0023327Y0027019D02*
X0021333Y0027019D01*
X0023724Y0028199D02*
X0006181Y0028199D01*
X0006181Y0029378D02*
X0024723Y0029378D01*
X0074121Y0024198D02*
X0083472Y0024198D01*
X0083917Y0023753D01*
X0143584Y0023753D01*
X0196126Y0023480D02*
X0200114Y0023480D01*
X0201294Y0022301D02*
X0196126Y0022301D01*
X0196998Y0024660D02*
X0197017Y0024660D01*
X0196998Y0025839D02*
X0197017Y0025839D01*
X0196998Y0027019D02*
X0197017Y0027019D01*
X0082851Y0022301D02*
X0075873Y0022301D01*
M02*
